<svg width="1272" height="462" viewBox="0 0 1272 462" fill="none" xmlns="http://www.w3.org/2000/svg">
<g filter="url(#filter0_d_4_147)">
<path d="M52.9156 191.262C98.2041 148.657 270.365 131.062 350.784 127.591L374.817 127.377C430.573 90.6787 544.689 17.2581 555.103 17.1658C589.003 0.314512 847.876 -11.2909 1058.9 24.0764C1080.29 26.9899 1117.9 37.8278 1097.21 53.7343C1114.67 65.3027 1162.93 101.148 1216.26 151.982L1226.27 151.893C1230.28 152.547 1238.93 156.746 1241.44 168.309C1253.73 198.818 1249.55 216.854 1245.92 222.058L1246.27 261.363L1255.43 277.832C1270.74 288.289 1258.88 328.419 1251.04 347.176C1233.46 353.125 1214.37 353.363 1207.02 352.739C1203.67 344.028 1200.11 330.723 1196.02 323.626C1143.77 233.003 1035.81 270.955 1000 359.5C994.808 372.339 990.949 391.662 989.18 406.391C993.59 414.282 997.402 430.11 977.374 430.287C957.347 430.465 587.76 424.778 405.47 421.912L376.366 414.929C380.5 301.465 318.627 246.898 247.5 251.427C186.615 259.026 167.236 278.511 144.064 332.075L118.857 399.628C52.4607 410.974 27.545 379.405 23.3866 362.201C21.6156 343.184 14.3808 325.387 10.9848 318.866C6.88976 298.126 7.29726 252.57 34.0834 213.288C39.3046 205.631 45.528 198.212 52.9156 191.262Z" fill="white"/>
<path d="M23.7456 365.042C26.0513 355.819 17.0205 332.378 12.2169 321.81C32.9685 340.255 103.485 346.788 136.15 347.749L118.857 399.628C56.6021 411.156 29.5099 381.374 23.7456 365.042Z" fill="black"/>
<path d="M98.5302 234.304C73.0218 214.266 46.2357 208.826 36.0311 208.611C13.5508 244.384 18.5076 255.863 23.7961 257.131C44.1863 271.304 79.5126 271.765 94.627 270.224C106.222 244.79 102.061 235.68 98.5302 234.304Z" fill="#EAEBD1"/>
<path d="M446.44 180.608C420.358 180.839 427.047 168.159 433.652 161.79C439.757 155.834 446.038 150.009 452.429 144.332L466.101 144.21C468.087 130.883 485.752 106.635 515.432 132.666L515.628 154.752C516.379 160.355 511.98 170.35 488.377 165.511L473.654 165.642L500.073 179.679L446.44 180.608Z" fill="black"/>
<path d="M1196.49 394.336C1203.19 392.377 1206.14 362.577 1206.77 347.922C1214.22 349.086 1233.72 350.318 1252.08 345.93C1239.13 392.366 1209.63 397.549 1196.49 394.336Z" fill="black"/>
<path d="M1179.77 390.983C1165.03 429.41 1127.04 439.708 1103.27 438.968C1079.02 436.936 1061.57 428.596 1049.64 416.819C1039.74 407.052 1033.64 394.921 1030.59 382.061C1022.18 346.568 1034.1 301.788 1056.85 289.583C1061.49 286.319 1066.05 283.552 1070.51 281.235C1088.49 271.906 1109.57 269.941 1124 272.116C1139.29 274.421 1152.26 281.454 1162.21 289.552C1175.06 300.022 1181.24 315.938 1182.45 322.056C1183.43 327.046 1184.19 331.836 1184.74 336.433C1186.84 353.823 1185.96 368.452 1182.97 380.709C1182.08 384.338 1181.01 387.76 1179.77 390.983Z" fill="black"/>
<path d="M1022.44 324.942C966.223 475.261 1231.33 496.722 1193 314.5C1139.11 234.015 1045.85 280.086 1022.44 324.942Z" fill="black"/>
<path d="M1062 401.609C1044.5 390.5 1043 374 1047 367.044L1033.57 375.547C1035 386.5 1043 397.5 1052.04 409.234L1062 401.609Z" fill="#D9D9D9"/>
<path d="M1137.12 405.343C1126.79 415.856 1110.17 417.273 1103.15 416.667V429.684C1111.29 430.345 1131.05 428.768 1144.97 417.169L1137.12 405.343Z" fill="#D9D9D9"/>
<path d="M1169 337.997C1174.92 356.584 1169.13 368.295 1166.5 372.661C1169.58 373.191 1175.5 373.917 1181.25 374.238C1183.08 365.448 1185.46 341.52 1181.3 336.433L1169 337.997Z" fill="#D9D9D9"/>
<path d="M1151 301.733C1140.45 287.397 1123.76 283.918 1118.1 284.971L1121.82 274C1133.36 270.365 1152.09 283.235 1159.46 289.583L1151 301.733Z" fill="#D9D9D9"/>
<path d="M1076.76 295C1066.5 296.5 1052 311 1049 322.116L1039.89 314.5C1043.27 305.554 1056.48 286.683 1067.5 285.819L1076.76 295Z" fill="#D9D9D9"/>
<path d="M1111.52 377.809C1100.4 382.692 1101.88 415.104 1104.01 430.7C1080.51 428.73 1063.6 420.648 1052.04 409.234C1080.6 389.047 1086.91 372.047 1086.49 366.07C1060.11 357.533 1040.22 368.831 1033.57 375.547C1026 346.143 1036.16 323.352 1042.19 315.632C1058.3 333.828 1080.91 335.555 1090.2 334.143C1091.59 311.805 1076.54 293.068 1068.84 286.491C1069.66 285.747 1070.67 284.923 1071.88 284.058L1075.14 279.923C1092.56 270.882 1108.55 270.437 1122.54 272.546C1113.13 290.558 1116.29 316.294 1119.04 326.911C1134.18 325.979 1151.7 301.704 1159.57 289.444C1172.03 299.591 1179.58 311.464 1180.75 317.393C1180.81 317.682 1180.86 317.971 1180.92 318.259C1182.22 321.987 1182.93 325.793 1182.75 329.533C1182.83 330.134 1182.9 330.732 1182.98 331.327L1182.14 333.775C1181.84 334.973 1181.44 336.158 1180.93 337.325C1150.63 337.594 1137.83 347.675 1135.21 352.681C1140.15 369.382 1167.96 374.011 1181.25 374.238C1180.39 377.755 1179.35 381.071 1178.16 384.195L1181.25 374.238C1168.79 407.07 1150.42 418.686 1142.79 420.389C1137 404.161 1122.64 372.926 1111.52 377.809Z" fill="#D9D9D9"/>
<path d="M1224.07 150.976C1228.15 151.618 1236.94 155.747 1239.48 167.124C1251.96 197.139 1247.71 214.887 1244.02 220.008L1244.36 258.681C1245.74 260.704 1243.8 263.979 1225.05 260.888C1236.41 257.53 1229.23 197.07 1224.21 167.259C1223.17 160.754 1216.9 153.753 1213.89 151.066L1224.07 150.976Z" fill="#FF0000"/>
<path d="M206.857 414.089C147.829 379.126 161.894 319.393 178.766 290.803C197.619 253.944 245.131 251.647 276.455 257.623C343.28 270.373 346.625 334.136 339.944 364.425C330.165 405.072 295.74 420.978 266.24 425.691C245.816 428.955 224.653 424.629 206.857 414.089Z" fill="black"/>
<path d="M211.49 431.305C144.89 411.951 142.874 330.434 162.57 298.114C168.757 286.418 193.434 261.144 242.639 253.618C308.6 253.765 343.305 291.492 352.413 310.338C371.235 396.39 316.644 426.615 277.137 434.353C255.549 438.58 232.614 437.444 211.49 431.305Z" fill="black"/>
<path d="M196.808 386.071C193.324 390.248 189.852 395.607 188.612 398.573C192.5 405.722 213 420.5 229 420.5C230.725 416.636 231.874 410.607 233.123 407.073C218.5 408.79 204.5 398.573 196.808 386.071Z" fill="#D9D9D9"/>
<path d="M279.206 407.073C280.673 410.433 283.742 417.167 284.944 419.3C303 414.089 314.943 406.024 322.995 392.054C321.393 388.682 318.462 383.15 316.235 380.508C306.5 396.5 301.5 399.447 279.206 407.073Z" fill="#D9D9D9"/>
<path d="M321.13 287.923C318.289 289.498 306.753 298.457 311.5 295.143C322.068 303 328.5 326.5 325.5 334.764L339.029 332.921C333.667 305.197 324.667 291.109 321.13 287.923Z" fill="#D9D9D9"/>
<path d="M226.678 261.784C226.6 265.263 227.112 270.593 227.581 273.812C229.1 270.445 247.522 266.217 267.595 270.823C268.928 271.129 270.595 260.318 265.982 258.997C252.482 255.134 235.055 256.287 226.678 261.784Z" fill="#D9D9D9"/>
<path d="M167.29 339.618C170.792 340.083 177.793 340.592 181 340.786C179.578 324.763 177.648 317 188.834 302.684C186.065 301.215 180.378 298.323 178.5 297.62C177.648 299.5 170 301 167.29 339.618Z" fill="#D9D9D9"/>
<path d="M229 420.5C235.591 424.581 255.243 431.154 284.944 419.3C283.708 417.105 282.237 414.175 280.728 410.717C275.394 398.494 269.592 379.685 272.03 363.528C282.582 363.434 304.079 367.428 317.031 382.793C319.322 385.51 321.346 388.584 322.995 392.054C329.851 387.164 342.657 368.49 339.029 332.921C326.63 335.1 297.472 338.257 280.043 333.444C281.804 326.122 290.735 309.226 312.627 294.369C313.027 294.097 313.432 293.826 313.842 293.555C313.174 294.021 312.788 294.278 312.627 294.369C311.607 294.945 319.544 288.933 322.068 287.534C318.2 279.289 302.185 262.872 269.033 259.026C269.306 261.451 269.391 264.758 269.119 268.664C268.268 280.855 263.927 298.873 250.892 314.038C243.682 308.433 230.344 293.023 227.257 271.816C226.775 268.504 226.598 265.363 226.678 261.784C212.886 262.596 183.225 270.256 178.5 297.62C180.433 298.343 183.767 299.954 186.615 301.465C197.03 306.991 212.196 317.792 222.091 333.958C216.766 337.03 201.147 342.05 177.648 340.624C174.348 340.423 170.893 340.096 167.29 339.618C164.625 350.336 165.347 377.307 189.554 399.447C190.83 396.396 193.224 390.368 196.808 386.071C204.613 376.713 218.062 368.346 237.898 365.9C239.735 371.543 240.738 387.478 232.619 410.449C231.334 414.086 230.775 416.524 229 420.5Z" fill="#D9D9D9"/>
<path d="M375.78 163.225C312.223 143.543 332.826 132.17 351.072 128.944L375.44 128.704C369.408 134.856 367.913 148.071 410.191 151.717C391.621 163.272 379.513 164.204 375.78 163.225Z" fill="black"/>
<path d="M826.15 223.106L775.089 223.559C760.36 223.689 765.4 238.375 775.202 236.324L826.263 235.871C842.956 235.723 836.943 222.028 826.15 223.106Z" fill="black"/>
<path d="M350.784 127.591C270.365 131.062 98.2041 148.657 52.9156 191.262C45.528 198.212 39.3046 205.631 34.0834 213.288C7.29726 252.57 6.88976 298.126 10.9848 318.866C14.3808 325.387 21.6156 343.184 23.3866 362.201C27.545 379.405 52.4607 410.974 118.857 399.628M350.784 127.591C332.787 130.853 312.46 142.412 375.129 162.545C378.81 163.546 390.752 162.613 409.075 150.865M350.784 127.591L374.817 127.377M409.075 150.865C399.443 194.051 386.379 301.883 411.176 387.726M409.075 150.865C447.498 117.078 535.924 45.2649 582.241 28.3036M409.075 150.865C367.381 147.097 368.864 133.637 374.817 127.377M411.176 387.726C410.241 395.32 405.47 421.912 405.47 421.912M411.176 387.726L819.801 391.343M405.47 421.912L376.366 414.929C380.5 301.465 318.627 246.898 247.5 251.427C186.615 259.026 167.236 278.511 144.064 332.075L118.857 399.628M405.47 421.912C587.76 424.778 957.347 430.465 977.374 430.287C997.402 430.11 993.59 414.282 989.18 406.391M819.801 391.343C820.559 391.51 821.382 391.539 822.254 391.402M819.801 391.343C820.601 391.361 821.419 391.381 822.254 391.402M822.254 391.402C831.775 389.905 847.173 368.568 847.942 289.721L847.226 209.044C847.811 199.729 846.365 179.674 835.899 173.974L834.487 14.6881M822.254 391.402C866.35 392.505 957.645 396.925 989.18 406.391M834.487 14.6881C769.703 12.1594 628.558 11.3423 582.241 28.3036M834.487 14.6881C970.675 13.6837 1046.9 26.681 1067.99 33.3053L1097.21 53.7343M582.241 28.3036C574.409 20.7781 560.886 17.7428 555.103 17.1658M989.18 406.391C990.949 391.662 994.808 372.339 1000 359.5C1035.81 270.955 1143.77 233.003 1196.02 323.626C1200.11 330.723 1203.67 344.028 1207.02 352.739C1214.37 353.363 1233.46 353.125 1251.04 347.176C1258.88 328.419 1270.74 288.289 1255.43 277.832L1246.27 261.363L1245.92 222.058C1249.55 216.854 1253.73 198.818 1241.44 168.309C1238.93 156.746 1230.28 152.547 1226.27 151.893L1216.26 151.982C1162.93 101.148 1114.67 65.3027 1097.21 53.7343M374.817 127.377C430.573 90.6787 544.689 17.2581 555.103 17.1658M555.103 17.1658C589.003 0.314512 847.876 -11.2909 1058.9 24.0764C1080.29 26.9899 1117.9 37.8278 1097.21 53.7343M118.857 399.628C56.6021 411.156 29.5099 381.374 23.7456 365.042C26.0513 355.819 17.0205 332.378 12.2169 321.81C32.9685 340.255 103.485 346.788 136.15 347.749L118.857 399.628ZM173.555 284.033L139.138 271.886C138.08 271.512 136.969 271.309 135.847 271.284L89.8742 270.263M362.632 284.033L854.655 292.507H1045.32M1169.25 290.389C1194.32 290.742 1251.98 291.977 1260.88 285.622M375.872 377.247L410.828 382.014M452.429 144.332C446.038 150.009 439.757 155.834 433.652 161.79C427.047 168.159 420.358 180.839 446.44 180.608L500.073 179.679L473.654 165.642M452.429 144.332C448.261 148.73 442.464 159.187 452.62 165.828L473.654 165.642M452.429 144.332L466.101 144.21M473.654 165.642L473.514 149.867M473.654 165.642L488.377 165.511M473.514 149.867L466.101 144.21M473.514 149.867L488.377 165.511M466.101 144.21C468.087 130.883 485.752 106.635 515.432 132.666L515.628 154.752C516.379 160.355 511.98 170.35 488.377 165.511M1179.77 390.983C1165.03 429.41 1127.04 439.708 1103.27 438.968C1079.02 436.936 1061.57 428.596 1049.64 416.819C1039.74 407.052 1033.64 394.921 1030.59 382.061C1022.18 346.568 1034.1 301.788 1056.85 289.583C1061.49 286.319 1066.05 283.552 1070.51 281.235C1088.49 271.906 1109.57 269.941 1124 272.116C1139.29 274.421 1152.26 281.454 1162.21 289.552C1175.06 300.022 1181.24 315.938 1182.45 322.056C1183.43 327.046 1184.19 331.836 1184.74 336.433C1186.84 353.823 1185.96 368.452 1182.97 380.709M1179.77 390.983C1181.01 387.76 1182.08 384.338 1182.97 380.709M1179.77 390.983L1182.97 380.709M1052.04 409.234L1062 401.609C1044.5 390.5 1043 374 1047 367.044L1033.57 375.547M1052.04 409.234C1043 397.5 1035 386.5 1033.57 375.547M1052.04 409.234C1063.6 420.648 1080.51 428.73 1104.01 430.7C1101.88 415.104 1100.4 382.692 1111.52 377.809C1122.64 372.926 1137 404.161 1142.79 420.389C1150.42 418.686 1168.79 407.07 1181.25 374.238M1052.04 409.234C1080.6 389.047 1086.91 372.047 1086.49 366.07C1060.11 357.533 1040.22 368.831 1033.57 375.547M1033.57 375.547C1026 346.143 1036.16 323.352 1042.19 315.632C1058.3 333.828 1080.91 335.555 1090.2 334.143C1091.59 311.805 1076.54 293.068 1068.84 286.491M1181.25 374.238C1175.5 373.917 1169.58 373.191 1166.5 372.661C1169.13 368.295 1174.92 356.584 1169 337.997L1181.3 336.433C1185.46 341.52 1183.08 365.448 1181.25 374.238ZM1181.25 374.238C1180.39 377.755 1179.35 381.071 1178.16 384.195L1181.25 374.238ZM1181.25 374.238C1167.96 374.011 1140.15 369.382 1135.21 352.681C1137.83 347.675 1150.63 337.594 1180.93 337.325M1180.93 337.325L1182.14 333.775M1180.93 337.325C1181.44 336.158 1181.84 334.973 1182.14 333.775M1182.75 329.533C1182.83 330.134 1182.9 330.732 1182.98 331.327L1182.14 333.775M1182.75 329.533C1182.27 325.898 1181.67 322.142 1180.92 318.259M1182.75 329.533C1182.93 325.793 1182.22 321.987 1180.92 318.259M1182.75 329.533C1182.68 330.959 1182.48 332.376 1182.14 333.775M1180.92 318.259C1180.86 317.971 1180.81 317.682 1180.75 317.393C1179.58 311.464 1172.03 299.591 1159.57 289.444M1180.92 318.259C1176.72 306.266 1166.35 295.076 1159.57 289.444M1159.57 289.444C1151.7 301.704 1134.18 325.979 1119.04 326.911C1116.29 316.294 1113.13 290.558 1122.54 272.546M1122.54 272.546C1108.55 270.437 1092.56 270.882 1075.14 279.923M1122.54 272.546C1098.75 269.629 1080.47 277.906 1071.88 284.058M1075.14 279.923C1070.81 282.169 1066.39 284.85 1061.89 288.014M1075.14 279.923L1071.88 284.058M1071.88 284.058L1068.84 286.491M1071.88 284.058C1070.67 284.923 1069.66 285.747 1068.84 286.491M1239.48 167.124C1236.94 155.747 1228.15 151.618 1224.07 150.976L1213.89 151.066C1216.9 153.753 1223.17 160.754 1224.21 167.259M1239.48 167.124L1224.21 167.259M1239.48 167.124C1251.96 197.139 1247.71 214.887 1244.02 220.008L1244.36 258.681C1245.74 260.704 1243.8 263.979 1225.05 260.888C1236.41 257.53 1229.23 197.07 1224.21 167.259M99.4752 236.304C151.353 212.848 258.678 184.109 302.852 183.341C313.444 187.578 381.357 183.167 406.129 166.393M196.808 386.071C193.324 390.248 189.852 395.607 188.612 398.573C192.5 405.722 213 420.5 229 420.5M196.808 386.071C204.5 398.573 218.5 408.79 233.123 407.073C231.874 410.607 230.725 416.636 229 420.5M196.808 386.071C193.224 390.368 190.83 396.396 189.554 399.447C165.347 377.307 164.625 350.336 167.29 339.618M196.808 386.071C204.613 376.713 218.062 368.346 237.898 365.9C239.735 371.543 240.738 387.478 232.619 410.449C231.334 414.086 230.775 416.524 229 420.5M229 420.5C235.591 424.581 255.243 431.154 284.944 419.3M284.944 419.3C283.742 417.167 280.673 410.433 279.206 407.073C301.5 399.447 306.5 396.5 316.235 380.508C318.462 383.15 321.393 388.682 322.995 392.054M284.944 419.3C303 414.089 314.943 406.024 322.995 392.054M284.944 419.3C283.708 417.105 282.237 414.175 280.728 410.717C275.394 398.494 269.592 379.685 272.03 363.528C282.582 363.434 304.079 367.428 317.031 382.793C319.322 385.51 321.346 388.584 322.995 392.054M322.995 392.054C329.851 387.164 342.657 368.49 339.029 332.921M226.678 261.784C226.6 265.263 227.112 270.593 227.581 273.812C229.1 270.445 247.522 266.217 267.595 270.823C268.928 271.129 270.595 260.318 265.982 258.997C252.482 255.134 235.055 256.287 226.678 261.784ZM226.678 261.784C212.886 262.596 183.225 270.256 178.5 297.62M226.678 261.784C226.598 265.363 226.775 268.504 227.257 271.816C230.344 293.023 243.682 308.433 250.892 314.038C263.927 298.873 268.268 280.855 269.119 268.664C269.391 264.758 269.306 261.451 269.033 259.026C302.185 262.872 318.2 279.289 322.068 287.534C319.544 288.933 311.607 294.945 312.627 294.369M167.29 339.618C170.792 340.083 177.793 340.592 181 340.786C179.578 324.763 177.648 317 188.834 302.684C186.065 301.215 180.378 298.323 178.5 297.62M167.29 339.618C170 301 177.648 299.5 178.5 297.62M167.29 339.618C170.893 340.096 174.348 340.423 177.648 340.624C201.147 342.05 216.766 337.03 222.091 333.958C212.196 317.792 197.03 306.991 186.615 301.465C183.767 299.954 180.433 298.343 178.5 297.62M339.029 332.921L325.5 334.764C328.5 326.5 322.068 303 311.5 295.143C306.753 298.457 318.289 289.498 321.13 287.923C324.667 291.109 333.667 305.197 339.029 332.921ZM339.029 332.921C326.63 335.1 297.472 338.257 280.043 333.444C281.804 326.122 290.735 309.226 312.627 294.369M312.627 294.369C313.027 294.097 313.432 293.826 313.842 293.555C313.174 294.021 312.788 294.278 312.627 294.369ZM36.0311 208.611C46.2357 208.826 73.0218 214.266 98.5302 234.304C102.061 235.68 106.222 244.79 94.627 270.224C79.5126 271.765 44.1863 271.304 23.7961 257.131C18.5076 255.863 13.5508 244.384 36.0311 208.611ZM11.4894 276.089C18.7079 279.055 32.2626 283.185 47.9282 285.127C63.3551 287.04 70.1496 303.391 54.6688 301.979V301.979C40.8421 300.719 25.8418 298.911 17.2198 296.682C13.5603 295.735 11.4894 292.298 11.4894 288.518V276.089ZM431.776 161.732C425.366 167.913 418.874 180.22 444.187 179.995L806.509 173.72C811.609 173.334 820.976 170.529 817.637 162.393L820.661 42.9344C819.944 38.8576 815.857 30.7276 805.242 30.8218C669.634 25.4643 608.635 37.9983 595.086 44.9349C568.002 58.6249 504.826 96.0866 450 144.788C443.797 150.298 437.701 155.952 431.776 161.732ZM845.595 43.1006L846.646 161.552C846.341 165.267 847.357 173.29 853.858 175.663L1142.37 170.067C1147.75 168.331 1156.87 161.433 1150.27 147.722C1117.56 113.25 1045.04 41.3318 1001.51 41.7179C979.543 38.8752 920.027 33.3282 857.663 33.8812C853.613 33.9172 845.53 35.8113 845.595 43.1006ZM1206.77 347.922C1206.14 362.577 1203.19 392.377 1196.49 394.336C1209.63 397.549 1239.13 392.366 1252.08 345.93C1233.72 350.318 1214.22 349.086 1206.77 347.922ZM1022.44 324.942C966.223 475.261 1231.33 496.722 1193 314.5C1139.11 234.015 1045.85 280.086 1022.44 324.942ZM1103.15 416.667C1110.17 417.273 1126.79 415.856 1137.12 405.343L1144.97 417.169C1131.05 428.768 1111.29 430.345 1103.15 429.684V416.667ZM1118.1 284.971C1123.76 283.918 1140.45 287.397 1151 301.733L1159.46 289.583C1152.09 283.235 1133.36 270.365 1121.82 274L1118.1 284.971ZM1049 322.116C1052 311 1066.5 296.5 1076.76 295L1067.5 285.819C1056.48 286.683 1043.27 305.554 1039.89 314.5L1049 322.116ZM178.766 290.803C161.894 319.393 147.829 379.126 206.857 414.089C224.653 424.629 245.816 428.955 266.24 425.691C295.74 420.978 330.165 405.072 339.944 364.425C346.625 334.136 343.28 270.373 276.455 257.623C245.131 251.647 197.619 253.944 178.766 290.803ZM162.57 298.114C142.874 330.434 144.89 411.951 211.49 431.305C232.614 437.444 255.549 438.58 277.137 434.353C316.644 426.615 371.235 396.39 352.413 310.338C343.305 291.492 308.6 253.765 242.639 253.618C193.434 261.144 168.757 286.418 162.57 298.114ZM351.072 128.944C332.826 132.17 312.223 143.543 375.78 163.225C379.513 164.204 391.621 163.272 410.191 151.717C367.913 148.071 369.408 134.856 375.44 128.704L351.072 128.944ZM775.089 223.559L826.15 223.106C836.943 222.028 842.956 235.723 826.263 235.871L775.202 236.324C765.4 238.375 760.36 223.689 775.089 223.559Z" stroke="black" stroke-width="1.96396"/>
</g>
<defs>
<filter id="filter0_d_4_147" x="0.24531" y="0.0180054" width="1271.45" height="461.134" filterUnits="userSpaceOnUse" color-interpolation-filters="sRGB">
<feFlood flood-opacity="0" result="BackgroundImageFix"/>
<feColorMatrix in="SourceAlpha" type="matrix" values="0 0 0 0 0 0 0 0 0 0 0 0 0 0 0 0 0 0 127 0" result="hardAlpha"/>
<feOffset dy="7.85586"/>
<feGaussianBlur stdDeviation="3.92793"/>
<feComposite in2="hardAlpha" operator="out"/>
<feColorMatrix type="matrix" values="0 0 0 0 0 0 0 0 0 0 0 0 0 0 0 0 0 0 0.25 0"/>
<feBlend mode="normal" in2="BackgroundImageFix" result="effect1_dropShadow_4_147"/>
<feBlend mode="normal" in="SourceGraphic" in2="effect1_dropShadow_4_147" result="shape"/>
</filter>
</defs>
</svg>
