<?xml version="1.0" standalone="no"?>
<!DOCTYPE svg PUBLIC "-//W3C//DTD SVG 20010904//EN"
 "http://www.w3.org/TR/2001/REC-SVG-20010904/DTD/svg10.dtd">
<svg version="1.0" xmlns="http://www.w3.org/2000/svg"
 width="1024.000000pt" height="1024.000000pt" viewBox="0 0 1024.000000 1024.000000"
 preserveAspectRatio="xMidYMid meet">

<g transform="translate(0.000000,1024.000000) scale(0.100000,-0.100000)"
fill="#000000" stroke="none">
<path d="M4875 9564 c-22 -2 -96 -9 -165 -14 -698 -60 -1371 -295 -1948 -682
-586 -393 -1086 -965 -1411 -1615 -184 -368 -350 -929 -395 -1338 -3 -27 -11
-90 -17 -140 -17 -151 -23 -527 -10 -660 23 -223 88 -567 137 -728 5 -16 14
-18 62 -14 32 3 58 6 58 6 1 1 -13 54 -32 119 -28 99 -33 133 -34 224 0 105
-1 108 -40 180 -87 161 -90 178 -90 451 0 144 4 256 11 277 6 19 19 112 29
205 28 250 96 486 154 534 8 7 29 58 46 114 77 249 148 426 277 687 199 402
402 687 755 1061 352 373 863 706 1383 901 430 160 889 244 1405 255 444 9
757 -29 1148 -142 859 -247 1568 -732 2102 -1439 142 -189 248 -362 365 -601
218 -441 323 -798 382 -1295 21 -179 24 -682 5 -835 -60 -482 -183 -903 -379
-1300 -75 -152 -185 -334 -205 -340 -9 -3 -65 -1 -125 6 -59 6 -154 9 -210 6
-57 -3 -103 -2 -103 1 0 4 10 7 23 8 49 1 245 15 290 21 104 13 28 31 -166 39
-143 5 -144 6 -57 15 41 5 84 11 95 13 11 2 48 4 83 5 37 0 61 5 57 10 -8 13
-63 19 -234 26 -80 3 -147 7 -149 10 -3 3 2 5 12 5 56 0 197 106 246 184 15
25 30 34 77 45 81 18 240 98 282 141 20 20 54 70 75 113 38 75 39 77 26 129
-29 127 -21 259 26 383 17 47 20 65 11 80 -17 30 -27 89 -42 232 -15 140 -29
177 -89 232 -16 16 -26 35 -26 53 0 69 -91 271 -165 368 -86 112 -157 162
-410 288 -246 123 -511 238 -725 316 l-115 41 -6 55 c-4 30 -11 66 -17 80 -15
38 -70 88 -128 116 -61 30 -187 44 -222 25 -19 -10 -27 -7 -64 27 -202 181
-616 484 -798 585 -227 125 -541 194 -1110 244 -241 21 -1324 24 -1555 5 -436
-38 -595 -61 -790 -117 -135 -39 -294 -126 -430 -234 -61 -50 -261 -247 -388
-383 -105 -112 -124 -128 -217 -178 -117 -63 -180 -114 -215 -174 -37 -63 -83
-262 -95 -406 -6 -69 -20 -168 -33 -220 -21 -89 -22 -110 -17 -320 7 -253 5
-246 98 -402 l50 -83 6 -115 c5 -98 39 -313 62 -387 5 -19 2 -23 -15 -23 -11
0 -21 -4 -21 -10 0 -5 11 -10 24 -10 19 0 36 -16 36 -35 0 -1 -30 -5 -67 -9
-38 -4 -84 -11 -103 -16 -32 -7 -31 -8 25 -10 33 -2 81 -2 107 0 46 2 88 -12
88 -30 0 -6 -51 -10 -123 -10 -120 0 -237 -15 -237 -30 0 -15 50 -20 228 -20
114 0 182 -4 182 -10 0 -5 -4 -10 -8 -10 -30 0 -178 -23 -184 -29 -4 -3 43 -7
105 -8 322 -6 597 -16 597 -24 0 -4 -54 -8 -121 -8 -67 -1 -124 -3 -128 -5 -3
-2 -111 -6 -239 -8 -127 -1 -232 -6 -232 -10 0 -12 158 -322 213 -418 30 -52
54 -96 52 -98 -1 -1 -31 7 -66 18 -35 12 -100 32 -144 46 -44 14 -155 57 -247
95 -92 38 -173 69 -181 69 -33 0 -36 -24 -13 -91 41 -118 127 -296 207 -431
43 -73 79 -135 79 -138 -1 -10 -149 -91 -266 -145 -223 -103 -249 -118 -252
-143 -2 -14 4 -29 15 -38 29 -22 379 -198 483 -242 190 -81 373 -152 407 -158
24 -5 33 -11 29 -21 -3 -8 -9 -84 -12 -169 l-7 -155 49 -47 c91 -88 288 -168
623 -253 256 -65 521 -109 884 -149 84 -9 110 -16 186 -54 212 -107 590 -245
840 -306 132 -32 360 -72 566 -97 248 -31 861 -19 1060 21 11 2 45 7 75 10
315 39 818 186 1162 340 117 52 130 56 263 71 319 35 532 72 790 135 353 87
608 196 675 290 23 32 23 24 16 319 l-1 44 66 18 c134 37 370 137 659 280 119
59 222 114 229 123 24 29 6 63 -46 82 -133 48 -387 170 -438 210 -20 15 -20
15 3 57 139 249 297 593 286 621 -10 26 -37 19 -187 -45 -220 -96 -515 -194
-532 -177 -3 3 11 34 31 69 139 246 261 539 334 807 170 621 201 1224 94 1842
-117 675 -416 1323 -857 1859 -121 147 -412 445 -517 530 -311 250 -516 384
-835 545 -425 213 -863 347 -1347 412 -107 14 -655 28 -753 18z m-245 -2308
c19 -2 88 -7 152 -10 64 -4 134 -8 155 -11 21 -3 97 -12 168 -20 221 -26 545
-88 532 -102 -2 -2 -89 4 -193 12 -141 12 -349 17 -814 20 -605 3 -724 0
-1065 -25 -88 -6 -175 -12 -192 -13 -18 -1 -33 -5 -33 -9 0 -5 4 -8 8 -8 13 0
99 -150 136 -235 18 -45 55 -146 81 -225 27 -80 63 -183 82 -230 18 -47 33
-88 33 -91 0 -3 -24 -24 -53 -46 l-53 -39 -32 150 c-66 303 -195 630 -285 719
-72 73 -173 112 -307 121 -66 4 -95 16 -39 16 19 0 99 5 179 11 80 6 204 14
275 19 130 7 1199 5 1265 -4z m-1576 -101 c168 -46 235 -120 330 -357 54 -137
137 -409 162 -535 16 -80 17 -102 6 -164 -14 -78 -20 -95 -33 -82 -4 4 -3 31
3 58 37 171 -174 805 -315 946 -81 81 -267 126 -477 114 -388 -21 -606 -144
-862 -486 -118 -158 -181 -263 -207 -351 -13 -40 -27 -84 -31 -98 -4 -14 -13
-24 -19 -22 -48 10 -301 34 -314 29 -28 -11 -21 -45 11 -51 28 -6 136 -21 235
-32 32 -4 59 -10 62 -14 2 -3 -1 -55 -7 -116 -10 -100 -3 -241 18 -354 4 -23
3 -24 -10 -7 -8 10 -20 15 -29 11 -11 -4 -32 7 -57 29 -23 19 -55 38 -72 41
-27 5 -37 1 -69 -30 -73 -71 -102 -177 -139 -509 -8 -72 -9 -66 -5 50 7 215
36 337 117 498 37 75 45 98 32 95 -9 -1 -24 -22 -33 -45 -9 -23 -20 -45 -24
-50 -13 -13 3 48 24 90 16 31 16 37 4 37 -9 0 -18 7 -22 16 -9 24 23 44 58 37
16 -3 29 -1 29 4 0 13 -62 32 -138 42 l-62 8 -11 -41 c-6 -23 -9 -76 -7 -118
4 -62 2 -76 -8 -67 -8 6 -11 27 -9 57 2 26 7 76 10 111 7 87 52 256 80 306 33
56 66 84 180 150 88 51 118 77 250 213 258 266 450 424 620 510 102 51 159 70
265 87 113 19 381 13 464 -10z m-355 -196 c-28 -74 -71 -188 -96 -254 -47
-126 -85 -246 -104 -333 -6 -29 -14 -52 -19 -52 -9 0 -8 4 26 137 30 114 91
283 225 622 5 13 12 22 14 19 3 -3 -18 -65 -46 -139z m2391 131 c242 -9 596
-27 645 -34 106 -15 125 -25 330 -164 213 -144 478 -356 725 -579 l54 -50 -39
-1 c-36 -1 -45 5 -119 77 -189 184 -514 444 -778 623 l-98 66 -97 7 c-54 4
-107 9 -118 11 -92 18 -1203 25 -1774 12 -178 -5 -322 -6 -320 -4 8 8 278 29
459 36 269 10 836 10 1130 0z m-2313 -146 c-65 -176 -111 -319 -161 -503 -41
-151 -56 -193 -56 -162 0 30 116 430 161 556 28 77 60 167 72 200 12 33 23 53
24 44 2 -9 -16 -69 -40 -135z m-141 19 c-4 -10 -35 -87 -69 -170 l-62 -153
-90 -1 c-49 0 -103 -3 -120 -5 -37 -6 -74 -46 -77 -82 0 -15 -1 -34 -2 -42 -1
-11 -16 -16 -63 -18 -35 -2 -63 -1 -63 1 0 2 15 37 34 78 19 41 42 97 51 126
17 52 124 193 147 193 12 0 11 -2 -70 -94 -29 -33 -52 -69 -52 -81 0 -12 -5
-26 -11 -32 -6 -6 -10 -16 -8 -22 2 -5 45 37 94 95 129 152 184 201 231 209
22 4 44 8 49 10 6 2 27 4 49 4 32 1 37 -2 32 -16z m2364 7 c10 -7 -20 -10 -97
-9 -65 1 -111 5 -107 10 7 12 185 11 204 -1z m-1895 -30 c103 -29 107 -38 54
-98 -59 -66 -133 -218 -141 -292 -3 -24 -5 -25 -92 -28 -82 -3 -88 -1 -81 15
4 10 25 70 46 133 62 183 110 290 128 290 9 0 47 -9 86 -20z m2855 -124 c145
-103 290 -216 400 -310 140 -119 244 -216 238 -221 -2 -3 -38 26 -79 63 -184
168 -442 372 -676 535 -45 32 -85 63 -89 69 -8 12 77 -44 206 -136z m-1900
118 c52 -7 106 -13 119 -13 l25 -1 -31 -32 c-34 -37 -192 -246 -200 -265 -4
-9 -35 -13 -108 -13 -110 0 -116 -2 -147 -64 l-15 -29 -24 79 c-21 73 -97 296
-114 337 -7 17 4 18 196 16 112 -1 247 -7 299 -15z m533 -111 c6 -9 43 -13
120 -14 109 -2 110 -2 41 -9 -73 -8 -117 -25 -146 -56 -19 -22 -61 -130 -87
-224 l-18 -65 -33 33 c-32 32 -32 34 -28 110 3 60 12 98 42 172 21 52 50 115
65 140 l26 45 5 -60 c3 -33 9 -66 13 -72z m937 102 c202 -69 458 -243 792
-538 69 -62 127 -114 127 -117 2 -10 -167 6 -180 17 -27 22 -180 83 -262 104
-46 11 -136 24 -202 27 l-120 7 -105 205 c-58 113 -123 231 -143 263 l-37 57
28 0 c16 0 61 -11 102 -25z m414 -32 c78 -48 321 -229 411 -307 150 -130 338
-307 332 -312 -2 -2 -48 35 -103 82 -133 116 -276 232 -409 334 -121 92 -285
219 -299 232 -24 20 12 5 68 -29z m-3064 0 c-5 -16 -19 -56 -33 -89 -24 -59
-51 -144 -117 -362 -17 -57 -33 -102 -36 -100 -15 15 115 438 165 536 25 48
33 54 21 15z m2220 -35 c0 -6 24 -64 54 -127 30 -64 71 -165 91 -226 21 -60
40 -116 43 -123 4 -11 -18 -13 -110 -10 l-114 3 4 55 c4 54 -27 245 -49 302
-16 40 -42 59 -96 68 -43 7 -39 8 43 9 93 1 114 9 114 43 0 10 5 18 10 18 6 0
10 -5 10 -12z m329 -99 c58 -109 163 -350 156 -357 -3 -3 -14 17 -26 44 -58
138 -108 247 -145 316 -46 85 -61 119 -46 103 6 -5 33 -53 61 -106z m-95 -69
c35 -69 81 -165 102 -215 20 -49 42 -96 47 -102 6 -8 6 -13 0 -13 -5 0 -42 71
-83 158 -40 86 -95 200 -122 252 -27 52 -40 84 -29 70 11 -14 49 -81 85 -150z
m-3225 38 c-101 -119 -189 -211 -196 -204 -3 3 7 22 23 43 36 48 216 233 227
233 4 0 -20 -33 -54 -72z m-23 -105 c-13 -21 -29 -56 -36 -78 -15 -48 -30 -67
-30 -38 0 12 -2 27 -5 35 -4 11 78 118 91 118 2 0 -7 -17 -20 -37z m17 -60
c-16 -50 -42 -89 -28 -44 11 37 35 91 40 91 2 0 -3 -21 -12 -47z m-93 -38 c0
-8 -7 -15 -16 -15 -14 0 -14 3 -4 15 7 8 14 15 16 15 2 0 4 -7 4 -15z m2359
-139 c-1 -23 -33 70 -43 124 -3 19 5 4 19 -34 14 -39 25 -79 24 -90z m11 72
c13 -35 28 -69 33 -76 12 -15 6 -24 -9 -14 -13 8 -67 165 -55 157 5 -2 19 -33
31 -67z m380 68 c0 -3 -4 -8 -10 -11 -5 -3 -10 -1 -10 4 0 6 5 11 10 11 6 0
10 -2 10 -4z m-1545 -103 c47 -26 69 -62 73 -123 2 -32 2 -71 -2 -84 l-6 -26
-102 5 c-211 10 -254 33 -52 29 82 -2 143 -1 137 2 -7 3 -13 18 -13 33 0 17
-10 37 -26 52 -25 23 -29 24 -196 24 l-170 0 -24 -30 c-13 -16 -27 -45 -30
-64 -11 -56 6 -61 190 -61 87 0 157 -3 154 -6 -12 -11 -77 -16 -203 -16 -121
0 -131 2 -147 22 -33 41 -13 136 38 181 79 69 299 105 379 62z m798 7 c-3 -12
-8 -19 -11 -16 -5 6 5 36 12 36 2 0 2 -9 -1 -20z m-624 -124 c-18 -85 -24 -50
-8 42 10 54 15 68 17 47 2 -16 -2 -56 -9 -89z m3578 83 c24 -12 50 -34 58 -50
17 -32 18 -39 6 -58 -7 -10 -27 -2 -92 38 -46 28 -95 60 -109 71 l-25 20 59 0
c41 0 74 -7 103 -21z m-1307 -21 c-30 -12 -98 -46 -147 -72 -36 -19 -62 -13
-28 7 51 30 162 77 180 76 17 0 16 -2 -5 -11z m-3924 -33 c-3 -8 0 -15 7 -16
7 0 35 -4 62 -9 28 -5 88 -14 135 -20 113 -14 443 -68 464 -76 9 -3 16 -13 16
-21 0 -12 -7 -14 -32 -8 -18 3 -51 9 -73 12 -22 2 -121 18 -220 34 -99 15
-214 33 -255 39 -41 5 -87 13 -102 16 -23 5 -28 2 -28 -15 0 -16 9 -21 48 -26
26 -4 133 -20 237 -36 105 -16 237 -37 295 -45 58 -9 110 -19 116 -22 7 -5 0
-25 -22 -58 l-33 -51 -108 22 c-119 25 -397 77 -510 96 -60 10 -73 16 -73 30
0 24 34 113 55 145 17 27 30 32 21 9z m4169 -15 c3 -6 -1 -7 -9 -4 -18 7 -21
14 -7 14 6 0 13 -4 16 -10z m-95 -24 c0 -3 -4 -8 -10 -11 -5 -3 -10 -1 -10 4
0 6 5 11 10 11 6 0 10 -2 10 -4z m-2093 -35 c7 -11 33 -32 58 -46 45 -27 45
-27 45 -83 0 -63 24 -126 61 -162 31 -30 197 -108 329 -155 166 -59 298 -112
398 -161 51 -25 98 -44 104 -42 33 11 -210 130 -466 229 -328 126 -374 156
-396 262 -6 32 -10 61 -7 63 3 3 32 -13 65 -34 36 -23 103 -52 164 -71 192
-60 343 -114 423 -151 44 -21 115 -54 158 -74 116 -52 220 -118 359 -226 4 -3
-42 -3 -102 -2 -167 6 -265 -33 -300 -118 -23 -55 -8 -191 33 -310 20 -57 35
-106 33 -107 -1 -1 -31 7 -66 18 -36 11 -123 29 -193 41 -134 21 -216 19 -250
-6 -17 -13 -15 -18 30 -78 95 -125 158 -322 207 -646 34 -223 46 -327 45 -382
-1 -42 -1 -43 -10 -16 -4 17 -13 75 -20 130 -17 153 -67 461 -90 551 -41 160
-108 318 -169 395 -26 34 -27 36 -9 54 10 10 44 25 76 32 53 13 70 12 211 -12
84 -14 164 -23 177 -20 l23 6 -18 58 c-34 110 -43 208 -27 295 l15 78 -48 24
c-27 14 -129 51 -227 84 -165 55 -261 84 -532 156 -131 36 -156 55 -155 122 0
27 9 67 20 88 17 37 22 40 57 38 20 -1 37 -1 37 1 0 2 -31 29 -70 60 -38 31
-70 63 -70 70 0 11 64 64 80 65 3 1 11 -8 17 -18z m2067 -43 c-74 -12 -1344
-13 -1344 0 0 4 311 7 691 7 381 0 674 -3 653 -7z m-3177 -39 c67 -9 82 -14
86 -31 4 -13 1 -18 -7 -15 -7 3 -57 11 -112 17 -54 7 -109 17 -122 21 -37 14
-15 32 32 25 22 -3 78 -10 123 -17z m824 1 c19 0 29 -5 29 -15 0 -16 -23 -15
-100 2 -23 5 -24 6 -5 13 11 5 26 7 33 4 8 -2 27 -4 43 -4z m3574 -20 c4 -6
-11 -10 -42 -11 -26 0 -55 -2 -63 -3 -8 -2 -73 -6 -145 -10 -71 -4 -166 -11
-210 -16 -251 -28 -542 -38 -1095 -40 -294 0 -536 -3 -539 -5 -10 -10 9 -13
153 -20 82 -4 158 -9 170 -11 35 -7 96 -13 221 -20 66 -4 134 -8 150 -9 17 -1
149 -5 295 -9 419 -10 774 -34 905 -60 39 -8 122 -24 186 -36 254 -45 455
-112 679 -226 180 -91 232 -123 295 -181 l56 -52 -43 -5 c-24 -3 -101 -8 -173
-11 -127 -6 -394 -21 -525 -30 -48 -3 -57 -2 -35 5 17 4 115 13 218 19 302 18
389 30 423 57 18 13 16 14 -16 10 -19 -3 -75 -8 -125 -11 -49 -3 -142 -12
-205 -20 -235 -29 -454 -37 -1007 -37 l-470 0 -83 36 c-46 21 -141 71 -212
112 -112 66 -165 92 -263 134 -346 147 -396 166 -595 233 -305 102 -568 178
-615 176 -28 0 10 -14 270 -99 202 -66 403 -140 482 -176 17 -8 33 -14 36 -14
10 0 487 -236 562 -278 44 -25 132 -80 196 -122 113 -75 120 -78 205 -90 67
-10 195 -11 524 -6 239 4 445 10 458 13 12 3 22 1 22 -5 0 -21 -370 -38 -805
-36 -296 1 -270 -4 -442 73 -111 49 -316 109 -512 151 -79 16 -151 36 -160 42
-9 7 -38 31 -66 54 -73 61 -239 171 -319 211 -141 71 -388 173 -593 244 -116
41 -211 75 -209 76 1 1 143 -3 316 -10 559 -20 1765 -14 2390 12 278 12 348
12 355 1z m-4335 -65 c107 -20 272 -49 365 -66 94 -17 185 -33 203 -36 25 -4
36 -13 46 -37 7 -18 37 -53 66 -78 l52 -46 -28 -168 c-26 -160 -28 -189 -31
-539 -4 -470 -13 -696 -25 -640 -15 67 -3 957 14 1043 10 51 11 75 4 80 -6 5
-48 14 -94 20 -46 6 -154 27 -240 47 -86 20 -206 47 -267 61 -136 31 -165 42
-165 63 0 29 -39 81 -75 98 -29 14 -44 15 -92 6 -32 -6 -60 -9 -62 -7 -2 2 4
21 13 42 l18 39 81 -18 c45 -9 120 -24 167 -33 47 -8 168 -31 270 -49 405 -76
475 -85 483 -64 4 12 -31 21 -186 51 -106 20 -302 61 -437 91 -135 30 -267 57
-295 61 -27 3 -55 9 -62 13 -17 9 42 101 65 101 10 0 105 -16 212 -35z m-865
-19 c44 -8 96 -18 115 -21 19 -3 121 -21 225 -40 105 -19 194 -35 198 -35 5 0
5 -5 2 -10 -4 -6 -16 -59 -27 -118 -26 -139 -31 -417 -13 -687 19 -283 19
-415 0 -415 -19 0 -252 65 -330 92 -33 12 -68 29 -78 38 -18 17 -18 18 5 44
l23 27 45 -16 c54 -19 262 -80 306 -89 l32 -7 -4 83 c-2 46 -9 146 -14 223
-20 274 -23 411 -11 526 7 63 15 122 17 132 5 15 -2 17 -53 16 -32 0 -80 4
-108 11 -123 28 -266 49 -295 43 -32 -6 -33 -5 -25 23 22 88 -10 134 -93 134
-72 -1 -83 -14 -89 -112 -5 -87 23 -321 53 -435 69 -264 88 -344 110 -453 31
-158 50 -226 76 -267 18 -30 34 -37 171 -82 84 -26 251 -77 372 -111 121 -34
344 -98 495 -142 151 -44 298 -86 325 -93 72 -19 105 -33 105 -44 0 -11 6 -13
-275 65 -126 34 -266 72 -310 83 -44 12 -145 41 -225 66 -80 25 -246 75 -369
111 -123 36 -241 74 -261 84 -54 27 -86 106 -115 280 -9 52 -27 136 -40 185
-101 376 -135 558 -135 725 0 64 16 195 25 210 3 4 24 4 47 -1 24 -4 79 -15
123 -23z m5570 -46 c403 -162 885 -397 885 -432 0 -5 -4 -7 -9 -4 -15 10 -66
-25 -90 -62 -13 -19 -26 -55 -30 -80 -11 -77 -20 -80 -296 -97 -269 -17 -511
-19 -519 -6 -3 4 18 9 47 9 93 2 372 14 377 17 3 2 59 6 125 9 267 14 277 26
129 162 -53 49 -104 96 -113 104 -37 35 -110 89 -171 125 -36 22 -85 53 -110
71 -25 17 -117 69 -205 115 -183 94 -235 125 -235 139 0 10 88 -19 215 -70z
m-4105 31 c22 -16 57 -32 77 -35 71 -13 113 -27 113 -37 0 -6 -4 -8 -8 -5 -9
5 -80 20 -247 52 -111 21 -143 37 -62 31 43 -3 57 0 57 10 0 21 27 15 70 -16z
m3481 6 c-10 -9 -11 -8 -5 6 3 10 9 15 12 12 3 -3 0 -11 -7 -18z m359 -7 c8
-5 11 -10 5 -10 -5 0 -17 5 -25 10 -8 5 -10 10 -5 10 6 0 17 -5 25 -10z m37
-10 c-1 -12 -5 -16 -10 -11 -5 5 -6 14 -3 20 11 16 15 13 13 -9z m-327 -26 c0
-8 -5 -12 -10 -9 -6 4 -8 11 -5 16 9 14 15 11 15 -7z m64 4 c-3 -4 -9 -8 -15
-8 -5 0 -9 4 -9 8 0 5 7 9 15 9 8 0 12 -4 9 -9z m102 -1 c4 -3 -4 -4 -16 -2
-30 6 -40 16 -12 12 12 -2 24 -6 28 -10z m174 -42 c0 -5 -5 -3 -10 5 -5 8 -10
20 -10 25 0 6 5 3 10 -5 5 -8 10 -19 10 -25z m-5382 -28 c21 -17 -2 -29 -33
-17 -16 6 -40 10 -54 8 -30 -4 -43 28 -14 34 22 5 83 -10 101 -25z m-48 -83
c53 -9 42 -22 -12 -15 -37 5 -43 10 -46 31 -2 22 -1 23 8 8 6 -10 29 -21 50
-24z m1845 6 c3 -5 1 -10 -4 -10 -6 0 -11 5 -11 10 0 6 2 10 4 10 3 0 8 -4 11
-10z m3735 6 c0 -3 -4 -8 -10 -11 -5 -3 -10 -1 -10 4 0 6 5 11 10 11 6 0 10
-2 10 -4z m-4866 -41 c29 -9 61 -23 72 -31 19 -15 19 -15 0 -10 -10 4 -47 11
-82 15 -67 10 -84 16 -84 32 0 13 35 11 94 -6z m1101 -25 c28 -5 61 -13 75
-19 24 -11 24 -11 -5 -6 -91 14 -162 29 -175 37 -10 6 -3 7 20 3 19 -3 58 -10
85 -15z m-1600 -19 c72 -16 147 -32 169 -35 21 -4 36 -10 33 -12 -6 -6 -54 3
-225 39 -62 14 -116 27 -119 31 -10 10 6 7 142 -23z m1786 -29 c-13 -2 -27 0
-32 5 -6 6 3 7 23 4 28 -4 29 -6 9 -9z m-81 -32 c80 -16 188 -31 240 -33 215
-10 332 -73 397 -214 30 -64 36 -154 12 -178 -12 -13 -21 -14 -43 -5 -33 12
-86 13 -105 1 -11 -7 -35 9 -93 64 -137 129 -243 159 -359 103 -101 -50 -202
-169 -251 -297 l-18 -46 6 45 c13 96 97 283 168 374 16 21 51 56 78 77 26 21
44 40 39 44 -14 8 -79 -31 -121 -71 -40 -38 -64 -41 -150 -23 -57 12 -56 8
-39 124 l12 76 41 -6 c22 -4 106 -20 186 -35z m-1207 -4 c18 -4 34 -2 43 5 15
13 19 2 5 -19 -6 -11 -17 -11 -57 -1 -59 14 -56 12 -48 34 6 15 9 16 18 3 6
-8 24 -18 39 -22z m-518 4 c25 -11 -1 -11 -35 0 -20 6 -21 8 -5 8 11 0 29 -3
40 -8z m262 4 c-3 -3 -12 -4 -19 -1 -8 3 -5 6 6 6 11 1 17 -2 13 -5z m-116
-34 c72 -17 110 -30 83 -30 -24 1 -206 48 -187 49 12 1 59 -8 104 -19z m-833
-72 c44 -58 40 -70 -8 -23 -37 36 -51 65 -32 65 4 0 22 -19 40 -42z m1509 16
c-3 -3 -12 -4 -19 -1 -8 3 -5 6 6 6 11 1 17 -2 13 -5z m215 -45 c160 -38 249
-66 173 -55 -51 8 -381 94 -363 95 10 1 95 -18 190 -40z m-285 -15 c-3 -3 -12
-4 -19 -1 -8 3 -5 6 6 6 11 1 17 -2 13 -5z m253 -48 c252 -53 276 -59 263 -63
-18 -7 -470 90 -482 103 -7 8 -7 8 219 -40z m-1731 -24 c35 -31 42 -43 37 -60
l-7 -22 -35 28 c-49 38 -76 93 -45 92 3 0 26 -18 50 -38z m7011 23 c-7 -9 -15
-13 -19 -10 -3 3 1 10 9 15 21 14 24 12 10 -5z m40 12 c0 -2 -10 -12 -22 -23
l-23 -19 19 23 c18 21 26 27 26 19z m160 -152 c26 -55 58 -132 70 -171 25 -81
20 -103 -28 -128 -26 -14 -156 -36 -208 -36 -35 0 -64 34 -64 74 l0 34 108 7
c156 9 147 7 150 37 4 37 -120 300 -134 285 -3 -3 2 -28 12 -56 11 -35 15 -73
12 -121 -5 -90 -26 -122 -92 -134 -26 -4 -49 -6 -52 -3 -11 11 -23 137 -15
159 5 13 29 46 53 73 25 28 55 70 68 95 l23 44 24 -29 c14 -17 47 -75 73 -130z
m-3375 116 c50 -10 205 -48 345 -83 140 -36 273 -69 294 -72 68 -13 144 -46
194 -85 58 -46 145 -161 162 -215 11 -35 11 -40 -11 -62 -41 -40 -119 -45
-356 -24 -299 28 -543 58 -658 80 -55 11 -116 22 -135 24 -96 11 -151 44 -170
102 -56 169 -51 327 12 354 32 14 213 3 323 -19z m-3528 -46 c21 -15 63 -75
63 -90 0 -4 -14 11 -30 33 -40 56 -78 58 -126 6 -38 -40 -46 -32 -12 12 44 57
67 65 105 39z m5661 -80 c-7 -7 -938 -10 -938 -3 0 4 179 9 398 10 376 3 548
0 540 -7z m-948 -4 c0 -9 -169 -5 -179 4 -2 3 37 5 87 5 51 0 92 -4 92 -9z
m-4621 -61 c11 -24 11 -24 -3 -6 -9 11 -16 24 -16 30 0 12 5 7 19 -24z m-77
-17 c49 -51 99 -206 112 -345 l6 -66 -42 -47 c-24 -26 -46 -54 -50 -63 -4 -11
-7 -3 -7 20 -1 20 -6 40 -13 44 -8 5 -9 -3 -3 -32 12 -64 11 -97 -4 -102 -9
-3 -11 0 -7 7 4 7 2 18 -4 26 -18 22 -3 115 20 123 25 9 79 86 86 121 10 47
-64 266 -96 286 -7 4 -9 -45 -8 -147 l2 -153 6 110 6 110 3 -100 c1 -55 6
-124 10 -152 4 -29 4 -53 -1 -53 -4 0 -8 15 -9 33 l-1 32 -8 -33 c-4 -18 -10
-35 -13 -38 -6 -7 -27 88 -27 124 0 67 -25 222 -36 222 -19 0 -35 -26 -50 -82
-24 -91 -20 -113 36 -183 28 -35 50 -66 50 -70 0 -4 -27 18 -60 48 -33 31 -69
58 -80 62 -19 6 -21 12 -15 48 19 111 85 250 128 267 34 14 41 12 69 -17z
m5799 -21 c40 -28 62 -53 87 -99 65 -123 51 -238 -39 -302 -35 -26 -51 -31
-99 -31 -47 0 -64 5 -96 29 -21 15 -47 37 -56 47 -56 64 -84 218 -54 298 21
54 45 77 94 86 80 16 106 12 163 -28z m788 -16 c18 -37 34 -313 26 -436 -13
-190 -32 -351 -44 -363 -9 -9 -368 -42 -581 -52 -74 -4 -146 -9 -160 -11 -14
-2 -228 -7 -477 -11 l-452 -6 -9 24 c-6 13 -33 96 -62 184 -28 88 -76 210
-106 271 -51 105 -161 282 -207 332 l-20 22 34 0 c31 0 40 -8 100 -83 36 -45
86 -111 111 -147 57 -82 126 -145 186 -173 41 -19 65 -22 177 -22 343 1 729 8
815 16 52 5 181 15 285 23 198 16 262 30 303 69 55 51 70 152 46 297 -17 107
-17 102 3 98 10 -2 24 -16 32 -32z m-69 -35 c0 -17 -30 -21 -278 -36 -136 -8
-262 -17 -280 -19 -23 -4 -32 -1 -29 7 2 8 42 15 108 20 57 4 187 14 289 21
102 7 186 14 188 15 1 0 2 -3 2 -8z m-4089 -51 c19 -5 60 -33 90 -61 l54 -50
-50 32 c-177 117 -424 -2 -557 -268 -22 -45 -47 -105 -54 -135 l-14 -53 6 50
c10 96 140 325 225 399 88 75 212 110 300 86z m3029 0 c0 -6 -30 -10 -67 -11
-38 0 -79 -2 -93 -5 -14 -2 -156 -7 -317 -10 -242 -6 -294 -4 -306 7 -11 12
13 14 162 14 151 0 405 6 574 13 26 1 47 -2 47 -8z m-5803 -36 c18 -14 33 -29
33 -35 0 -12 -73 34 -78 49 -6 19 8 14 45 -14z m6873 -45 c0 -4 -8 -8 -17 -8
-10 0 -43 -4 -73 -9 -30 -5 -118 -12 -195 -16 -77 -4 -173 -9 -212 -12 -60 -5
-73 -4 -73 8 0 12 27 16 143 22 170 8 280 17 287 23 8 7 140 0 140 -8z m523
-57 c23 -25 14 -65 -21 -92 -33 -27 -138 -59 -237 -74 l-80 -11 -8 -100 c-24
-326 -96 -631 -168 -718 -57 -69 -114 -87 -344 -107 -400 -34 -540 -41 -834
-43 -291 -2 -329 0 -357 15 -74 41 -110 114 -159 328 -60 258 -128 497 -147
516 -8 8 -72 17 -178 23 -373 23 -773 68 -945 105 -11 2 -56 12 -99 21 -122
25 -201 61 -236 105 -37 47 -37 52 -2 39 15 -6 68 -19 117 -30 192 -42 272
-58 310 -63 131 -18 279 -36 340 -41 39 -4 86 -8 105 -10 125 -13 280 -15 320
-5 25 6 67 16 95 20 57 11 75 29 75 79 l1 36 14 -25 c74 -129 201 -525 256
-795 33 -163 72 -229 157 -262 42 -16 80 -18 362 -17 392 0 821 32 1020 75
123 26 184 149 240 484 24 144 31 395 14 500 -5 33 -4 38 7 28 56 -46 205 -35
287 21 49 34 63 34 95 -2z m-6608 13 c107 -22 330 -90 308 -93 -11 -2 -62 11
-114 27 -52 17 -134 39 -182 50 -49 10 -91 22 -94 25 -9 9 5 7 82 -9z m-725
-5 c0 -5 -4 -10 -10 -10 -5 0 -10 5 -10 10 0 6 5 10 10 10 6 0 10 -4 10 -10z
m5725 -4 c0 -11 -12 -12 -366 -21 -220 -5 -309 -4 -313 4 -5 7 6 11 31 12 129
5 584 16 613 15 19 -1 35 -5 35 -10z m-5531 -134 c41 -39 55 -59 51 -72 -5
-17 -10 -17 -65 11 -32 16 -64 29 -71 29 -14 0 -6 -210 12 -320 10 -64 19 -90
19 -55 0 9 23 59 50 110 28 51 50 101 51 111 0 13 5 9 15 -13 15 -35 23 -40
40 -23 7 7 14 -14 22 -64 7 -40 18 -91 24 -112 l11 -39 12 46 c15 58 28 229
19 263 -6 24 -7 25 -30 9 -29 -18 -31 -62 -9 -163 23 -106 15 -113 -11 -10
-31 122 -26 157 27 199 l39 32 0 -103 c0 -118 -18 -244 -51 -355 -37 -122
-114 -186 -165 -136 -31 31 -83 156 -101 243 -14 65 -18 130 -18 275 0 105 3
198 8 208 7 18 8 18 36 0 16 -10 54 -42 85 -71z m2560 43 c149 -72 254 -252
292 -501 6 -38 4 -43 -17 -49 -13 -4 -75 -32 -138 -61 -62 -30 -115 -54 -117
-54 -2 0 -4 20 -4 44 0 32 5 46 17 50 9 4 60 41 114 84 96 75 99 78 94 112 -8
61 -74 176 -137 240 -63 64 -94 75 -103 38 -13 -59 -25 -203 -25 -302 0 -88 3
-113 17 -128 26 -29 11 -29 -22 -1 l-30 26 -5 256 c-2 141 -7 234 -10 206 -7
-59 -3 -430 5 -456 4 -13 0 -18 -16 -21 -27 -4 -57 -54 -69 -116 -11 -59 11
-133 47 -161 33 -27 45 -26 82 5 17 14 31 21 31 14 0 -24 153 -360 164 -360
11 0 51 84 76 160 32 94 50 202 45 267 -6 69 -13 83 -45 83 -24 0 -122 -29
-182 -55 -10 -4 -18 -3 -18 3 0 5 35 22 78 37 42 16 99 39 125 52 27 13 52 22
55 18 3 -3 8 -59 10 -125 10 -262 -45 -425 -191 -574 -69 -71 -90 -86 -136
-100 -68 -20 -126 -20 -180 -1 -214 75 -352 354 -350 710 0 118 18 240 34 237
6 -1 78 -38 161 -82 83 -44 160 -80 171 -80 14 0 25 12 37 38 17 37 16 44 -8
203 -14 90 -28 189 -31 219 -4 30 -9 57 -11 59 -11 11 -71 -29 -116 -78 -52
-57 -118 -178 -118 -216 0 -13 15 -32 38 -48 150 -110 202 -150 199 -153 -2
-3 -31 12 -63 31 -32 20 -102 57 -154 83 -52 26 -97 48 -99 50 -11 6 42 143
79 202 72 116 144 178 247 210 67 21 110 17 177 -15z m4025 15 c-23 -13 -238
-38 -402 -46 -125 -6 -137 -5 -131 10 5 12 21 16 73 17 36 0 131 6 211 13 185
17 271 19 249 6z m-5313 -104 c181 -51 345 -97 364 -101 49 -10 76 -28 30 -20
-39 7 -743 205 -749 211 -15 13 63 -6 355 -90z m4284 54 c0 -6 -4 -9 -9 -5 -5
3 -12 2 -15 -3 -7 -11 -562 -16 -578 -5 -13 8 129 15 430 21 125 3 172 1 172
-8z m1605 -49 c-10 -8 -152 -53 -210 -65 -16 -4 -39 -9 -50 -13 -15 -4 -17 -2
-9 6 6 7 55 23 109 37 54 13 105 29 114 34 20 12 58 13 46 1z m-5945 -131
c362 -100 480 -138 557 -182 62 -36 92 -63 80 -74 -4 -5 -598 144 -789 197
l-156 44 5 30 c10 54 20 65 51 55 15 -5 128 -36 252 -70z m-1273 -135 l0 -60
-7 50 c-5 28 -8 86 -8 130 l1 80 7 -70 c4 -38 7 -97 7 -130z m3981 153 c51 -6
91 -12 89 -15 -6 -6 -320 26 -327 34 -6 6 95 -1 238 -19z m289 -24 c-3 -3 -12
-4 -19 -1 -8 3 -5 6 6 6 11 1 17 -2 13 -5z m313 -20 c47 -4 108 -10 135 -14
49 -7 49 -8 10 -9 -61 -1 -376 27 -384 35 -3 4 30 4 74 0 44 -3 118 -9 165
-12z m-578 -30 c37 -4 65 -11 62 -15 -2 -5 -17 -6 -32 -3 -15 3 -63 9 -107 13
-56 6 -67 9 -35 10 25 0 75 -2 112 -5z m3268 -12 c0 -32 -88 -83 -183 -106
-51 -12 -19 11 52 38 37 15 79 38 91 51 23 25 40 32 40 17z m-3579 -76 c21 -9
111 -23 200 -31 206 -20 303 -36 179 -28 -210 12 -349 32 -400 58 -27 14 -55
35 -61 47 -10 21 -9 20 17 -4 16 -15 45 -34 65 -42z m-3137 19 c20 -9 145 -47
279 -86 133 -40 294 -87 357 -106 63 -19 162 -48 219 -63 98 -28 130 -40 102
-40 -14 0 -262 70 -461 130 -69 21 -206 62 -305 91 -178 52 -245 75 -245 84 0
9 16 5 54 -10z m6654 -84 c9 -5 -6 -10 -41 -15 -30 -3 -100 -17 -156 -30 -104
-24 -128 -20 -42 9 108 36 215 52 239 36z m-3264 -26 c28 -3 128 -12 221 -20
542 -48 647 -59 674 -75 11 -7 2 -9 -34 -5 -27 2 -113 7 -190 10 -175 7 -422
28 -723 60 -372 40 -388 37 -386 -58 2 -93 65 -265 127 -348 11 -16 38 -35 60
-44 129 -52 567 -101 992 -111 214 -5 228 -4 202 11 -15 9 -51 18 -80 21 -78
8 -82 11 -51 37 l27 24 -21 114 c-28 150 -36 205 -28 198 3 -3 13 -39 21 -80
29 -148 46 -222 55 -240 13 -24 102 -73 173 -94 31 -10 57 -20 57 -23 0 -10
-558 7 -710 22 -478 46 -642 75 -689 120 -38 37 -116 188 -135 261 -28 115
-25 168 15 207 l30 31 171 -7 c94 -3 194 -8 222 -11z m3268 -119 c-3 -55 0
-114 7 -143 16 -66 4 -96 -50 -124 -54 -27 -179 -64 -281 -84 -75 -14 -157
-20 -147 -11 2 2 51 14 109 26 178 36 266 67 310 107 l40 35 0 137 c0 117 3
151 15 151 1 0 0 -42 -3 -94z m-6365 14 c76 -21 188 -55 250 -73 62 -19 147
-43 190 -53 l78 -18 -120 -6 c-66 -3 -160 -5 -210 -5 -49 1 -161 2 -247 3 -98
1 -158 6 -158 12 0 6 96 10 267 10 208 0 264 3 255 12 -8 8 -84 13 -253 16
-171 3 -239 8 -237 16 10 35 42 126 45 126 1 0 65 -18 140 -40z m1732 1 c26
-26 44 -94 36 -134 -10 -47 -46 -97 -71 -97 -47 0 -84 80 -70 155 8 38 50 95
72 95 8 0 23 -9 33 -19z m4556 -20 c-11 -9 -119 -32 -144 -30 -9 1 16 9 54 19
80 21 103 24 90 11z m-6743 -33 c-8 -8 -9 -4 -5 13 4 13 8 18 11 10 2 -7 -1
-18 -6 -23z m6563 -7 c-37 -15 -91 -24 -80 -13 10 10 43 19 80 20 l20 1 -20
-8z m-3215 -17 c0 -2 -9 -4 -20 -4 -11 0 -20 4 -20 9 0 5 9 7 20 4 11 -3 20
-7 20 -9z m-3363 -16 c-3 -8 -6 -5 -6 6 -1 11 2 17 5 13 3 -3 4 -12 1 -19z
m3608 -2 c66 -8 209 -20 318 -27 108 -7 197 -14 197 -17 0 -7 -284 8 -439 23
-197 20 -241 26 -241 35 0 4 10 6 23 4 12 -2 76 -10 142 -18z m-2340 -16 c55
-16 89 -29 75 -29 -25 1 -204 56 -185 58 6 0 55 -12 110 -29z m5034 -41 c-29
-76 -65 -143 -85 -160 -15 -11 -14 -7 4 22 26 44 82 179 73 179 -3 0 -33 -4
-66 -9 -107 -17 -339 -36 -625 -51 -242 -12 -813 -20 -860 -11 -19 3 105 7
275 8 171 1 407 7 525 13 241 13 651 46 720 58 25 5 48 7 52 5 3 -2 -3 -26
-13 -54z m461 42 c0 -9 -140 -46 -210 -55 -38 -4 -41 -4 -15 4 17 6 73 21 125
34 52 13 96 24 98 25 1 1 2 -3 2 -8z m-3170 -65 c231 -24 385 -35 527 -38 39
0 77 -5 85 -10 8 -6 -21 -7 -77 -4 -49 3 -142 8 -205 11 -239 12 -740 70 -740
85 0 4 39 1 88 -6 48 -8 193 -25 322 -38z m600 28 c0 -2 -7 -4 -15 -4 -8 0
-15 4 -15 10 0 5 7 7 15 4 8 -4 15 -8 15 -10z m-1920 -47 c0 -22 40 -125 86
-222 18 -38 32 -71 30 -72 -6 -6 -73 129 -105 210 -30 74 -43 152 -21 117 5
-8 10 -23 10 -33z m-1072 -12 c-7 -8 -197 -9 -205 -2 -3 4 42 7 102 7 60 0
106 -2 103 -5z m5566 -8 c-7 -19 -125 -56 -218 -67 -82 -10 -117 -6 -50 5 123
22 193 38 224 54 44 23 51 24 44 8z m-5947 -3 c-3 -3 -12 -4 -19 -1 -8 3 -5 6
6 6 11 1 17 -2 13 -5z m111 -1 c-10 -2 -26 -2 -35 0 -10 3 -2 5 17 5 19 0 27
-2 18 -5z m5298 -2 c-7 -11 -356 -43 -611 -56 -60 -3 -135 -7 -165 -10 -126
-10 -552 -15 -645 -7 -83 8 -47 9 210 11 171 1 326 4 345 6 19 2 100 6 180 10
80 3 197 10 260 15 63 5 153 12 200 16 47 3 112 9 145 14 87 11 87 11 81 1z
m-1959 -7 c-3 -3 -12 -4 -19 -1 -8 3 -5 6 6 6 11 1 17 -2 13 -5z m-766 -49
c202 -31 321 -41 499 -45 74 -1 171 -6 215 -10 73 -6 68 -7 -65 -8 -80 -1
-208 3 -285 8 -157 12 -555 66 -588 81 -27 11 -2 9 224 -26z m2668 -55 c-38
-22 -179 -39 -454 -56 -49 -3 -103 -7 -120 -10 -73 -10 -742 -16 -775 -6 -26
8 36 10 245 11 349 0 915 33 1055 60 61 12 68 12 49 1z m-5733 -108 c13 -7
-27 -11 -138 -11 -85 -1 -164 -3 -174 -5 -11 -2 -95 -7 -189 -11 -205 -9 -191
-22 25 -24 153 -2 487 -11 545 -15 17 -1 75 -4 130 -5 158 -5 47 -18 -172 -20
-100 -1 -190 -3 -200 -5 -10 -2 -61 -7 -113 -12 -149 -12 -64 -23 205 -25 341
-4 650 -20 600 -31 -22 -5 -69 -7 -104 -5 -94 6 -536 -19 -558 -32 -14 -8 -3
-11 52 -12 39 -1 88 -3 110 -4 22 -1 224 -5 450 -9 225 -4 412 -9 414 -12 2
-2 -34 -4 -80 -4 -184 0 -477 -11 -524 -20 -27 -5 -86 -13 -130 -17 l-80 -7
60 -7 c33 -4 149 -8 259 -8 110 -1 203 -4 207 -6 4 -3 114 -5 244 -6 131 0
233 -4 229 -9 -5 -4 -139 -11 -299 -14 -288 -7 -457 -24 -375 -39 19 -3 184
-8 365 -9 343 -3 537 -12 365 -17 -47 -1 -93 -4 -102 -6 -10 -2 -66 -6 -125
-10 -115 -6 -311 -31 -278 -35 11 -1 117 -3 235 -5 211 -2 544 -15 538 -20 -2
-1 -59 -5 -128 -9 -204 -9 -430 -29 -430 -38 0 -4 164 -8 365 -8 201 0 365 -4
365 -8 0 -5 -73 -14 -162 -21 -194 -14 -328 -32 -328 -43 0 -4 163 -8 363 -9
383 -1 508 -11 277 -22 -203 -10 -381 -25 -420 -35 -34 -8 -34 -9 -11 -17 14
-4 273 -5 575 -2 542 5 553 3 106 -22 -147 -9 -358 -33 -395 -45 -32 -11 76
-16 170 -8 110 9 1053 16 1044 8 -6 -6 -164 -15 -479 -27 -273 -9 -447 -22
-458 -34 -3 -3 19 -6 49 -6 135 -3 936 2 949 6 8 2 173 9 365 15 345 10 568
18 715 25 41 2 140 7 220 10 166 7 664 43 696 50 18 4 413 28 809 50 146 8
260 16 282 21 22 4 22 4 5 -25 -15 -26 -15 -43 -4 -171 6 -79 13 -145 15 -147
12 -11 220 42 285 73 64 31 71 37 62 54 -16 29 -12 35 10 15 26 -24 25 -51 -2
-69 -60 -39 -171 -67 -478 -120 -342 -59 -364 -63 -420 -70 -19 -3 -84 -12
-145 -20 -286 -39 -350 -47 -495 -61 -148 -15 -198 -20 -300 -30 -54 -6 -143
-12 -355 -25 -596 -37 -1450 -40 -1930 -5 -38 2 -115 7 -170 10 -55 3 -116 8
-135 10 -19 2 -73 7 -120 10 -109 8 -504 43 -550 50 -19 2 -60 7 -90 10 -115
12 -362 47 -537 75 -100 17 -184 30 -187 30 -3 0 -2 10 3 23 5 12 14 69 21
127 13 100 12 107 -8 152 -16 37 -31 53 -74 77 -73 42 -91 45 -568 102 -140
16 -254 39 -266 52 -21 22 -294 516 -294 532 0 1 175 0 389 -1 240 -1 396 -6
407 -12z m2269 -22 c3 -5 1 -10 -4 -10 -6 0 -11 5 -11 10 0 6 2 10 4 10 3 0 8
-4 11 -10z m3940 0 c-7 -12 -72 -40 -89 -39 -6 0 8 8 31 17 23 9 45 20 49 25
11 10 16 9 9 -3z m-3611 -35 c65 -9 131 -17 146 -18 16 -1 26 -5 22 -8 -7 -7
-188 12 -287 30 -84 15 -6 12 119 -4z m-134 -40 c63 -7 171 -21 240 -29 186
-23 437 -44 685 -57 121 -6 222 -13 225 -16 9 -9 -448 13 -670 33 -210 18
-572 65 -625 80 -46 13 -47 13 -10 9 22 -3 92 -12 155 -20z m2457 -142 c15
-20 46 -49 67 -65 l39 -28 -79 6 c-43 3 -97 7 -119 9 -22 2 -107 4 -189 4 -82
1 -147 4 -143 7 3 4 61 10 129 15 371 25 347 38 -72 40 -401 1 -504 12 -230
23 107 5 263 12 345 16 83 4 167 8 187 8 32 2 41 -3 65 -35z m-2743 -90 c-32
-51 -118 -134 -161 -154 -23 -10 -45 -23 -48 -29 -3 -5 -11 -10 -17 -10 -13 0
27 30 66 50 34 17 130 112 154 152 9 15 18 26 20 24 2 -3 -4 -17 -14 -33z
m1584 20 c-10 -2 -28 -2 -40 0 -13 2 -5 4 17 4 22 1 32 -1 23 -4z m520 0 c-93
-2 -243 -2 -335 0 -93 1 -17 3 167 3 184 0 260 -2 168 -3z m782 -63 c11 -7 0
-10 -37 -10 -28 0 -55 5 -58 10 -8 13 75 13 95 0z m-725 -14 c11 -2 -52 -3
-140 -3 -133 1 -144 2 -65 6 89 6 158 4 205 -3z m-3088 -12 c-3 -3 -12 -4 -19
-1 -8 3 -5 6 6 6 11 1 17 -2 13 -5z m-2047 -154 c93 -28 442 -91 575 -104 340
-35 455 -51 455 -65 0 -4 -28 -2 -62 5 -35 6 -92 14 -128 17 -361 30 -566 59
-792 111 -120 28 -163 45 -113 46 17 0 46 -5 65 -10z m7489 0 c-95 -55 -715
-163 -668 -116 2 3 74 14 159 26 190 26 354 55 440 80 73 21 92 24 69 10z
m-3409 -30 c10 -7 -7 -9 -55 -8 -69 1 -70 1 -20 8 28 4 52 7 55 8 3 1 12 -3
20 -8z m2520 -21 c-121 -9 -225 -10 -219 -4 3 2 61 7 130 11 68 4 125 8 127 9
1 1 15 -1 30 -4 17 -4 -9 -8 -68 -12z m173 14 c-7 -2 -19 -2 -25 0 -7 3 -2 5
12 5 14 0 19 -2 13 -5z m-408 -21 c-12 -10 -553 -37 -562 -28 -4 3 14 6 38 7
44 1 491 25 519 28 8 0 10 -2 5 -7z m-2862 -9 c-23 -2 -64 -2 -90 0 -26 2 -7
3 42 3 50 0 71 -1 48 -3z m1812 -63 c-41 -11 -198 -11 -165 0 14 4 63 8 110 8
59 0 76 -3 55 -8z m-1582 -7 c-24 -2 -62 -2 -85 0 -24 2 -5 4 42 4 47 0 66 -2
43 -4z m1082 -13 c-36 -7 -246 -19 -645 -36 -80 -3 -142 -3 -139 0 6 6 234 20
529 32 85 4 157 8 159 10 2 2 34 4 70 3 61 -1 63 -2 26 -9z m-945 -43 c-10 -9
-90 -17 -90 -9 0 5 21 9 47 11 26 1 45 0 43 -2z m53 -4 c-7 -2 -21 -2 -30 0
-10 3 -4 5 12 5 17 0 24 -2 18 -5z m-3548 -98 c-57 -41 -57 -50 1 -82 90 -51
533 -170 849 -228 211 -38 210 -39 -10 -19 -33 3 -82 9 -110 14 -27 5 -79 12
-115 15 -104 10 -354 62 -497 104 l-131 38 -4 -29 c-3 -16 0 -35 6 -43 31 -40
260 -123 471 -170 144 -32 146 -33 92 -34 -95 -2 -394 55 -522 99 -32 11 -60
20 -62 20 -1 0 -3 -16 -3 -35 0 -25 6 -39 24 -50 44 -29 198 -87 375 -142
l176 -54 -81 5 c-82 5 -287 54 -424 100 -41 14 -76 26 -77 26 -2 0 -3 -15 -3
-33 0 -43 16 -57 120 -105 110 -51 187 -75 345 -112 l130 -30 -105 4 c-125 6
-252 32 -392 81 -56 19 -105 35 -110 35 -5 0 -8 -17 -6 -37 3 -36 6 -40 78
-75 85 -42 206 -84 390 -134 l125 -34 -85 5 c-110 6 -242 35 -392 85 -66 22
-122 40 -124 40 -2 0 -4 -18 -4 -40 0 -37 3 -41 48 -64 75 -37 229 -92 327
-116 50 -11 110 -26 135 -32 123 -30 33 -31 -140 -2 -159 27 -338 74 -366 95
-31 25 -33 -49 -1 -79 50 -47 241 -124 462 -187 l90 -25 -68 5 c-200 16 -476
101 -571 176 l-28 22 6 96 c4 53 16 177 27 276 22 203 24 221 43 435 8 85 17
162 21 171 3 8 25 25 48 37 48 24 71 28 42 7z m-282 -21 c31 -10 57 -21 57
-25 0 -9 -132 30 -145 43 -11 11 -5 10 88 -18z m67 -175 c0 -4 -31 1 -70 12
-38 10 -72 19 -75 19 -3 0 -5 4 -5 8 0 5 34 0 75 -11 41 -11 75 -24 75 -28z
m7256 42 c-7 -11 -93 -41 -115 -40 -9 0 11 11 44 24 67 26 79 29 71 16z m-386
-118 c0 -12 -91 -60 -162 -87 -57 -22 -247 -67 -273 -65 -19 1 40 21 138 45
94 24 200 64 262 97 36 19 35 19 35 10z m420 -28 c0 -9 -91 -46 -136 -54 -62
-12 -47 -1 44 31 82 28 92 31 92 23z m-7362 -30 c29 -9 51 -20 48 -23 -9 -8
-126 30 -126 41 0 5 6 7 13 5 6 -3 36 -13 65 -23z m1339 -21 c-3 -3 -12 -4
-19 -1 -8 3 -5 6 6 6 11 1 17 -2 13 -5z m-1377 -115 c50 -16 74 -28 59 -29
-30 0 -179 47 -194 62 -13 12 25 3 135 -33z m6966 6 c-35 -27 -150 -65 -275
-90 -68 -14 -128 -24 -134 -22 -5 1 41 16 104 31 62 16 156 44 208 62 107 36
125 40 97 19z m427 4 c-13 -13 -163 -60 -163 -51 0 6 140 58 165 61 5 0 4 -4
-2 -10z m-5641 -104 c232 -36 211 -27 204 -83 -17 -119 -14 -113 -60 -110 -38
3 -41 5 -44 35 -4 42 -20 53 -85 60 l-54 6 -13 -101 c-7 -55 -10 -107 -7 -115
4 -11 28 -17 82 -22 61 -6 75 -10 71 -22 -3 -8 -6 -28 -6 -45 l0 -30 -47 6
c-27 4 -64 9 -84 12 l-35 5 -15 -131 c-8 -72 -12 -133 -9 -135 3 -2 30 -6 61
-10 63 -8 89 7 89 52 0 24 2 25 45 20 26 -2 48 -7 52 -10 6 -6 -13 -156 -21
-164 -2 -3 -93 5 -201 18 l-197 24 6 33 c3 19 13 40 22 46 15 12 24 66 59 396
4 30 10 84 15 120 9 59 8 67 -10 82 -26 21 -24 88 2 88 9 0 90 -11 180 -25z
m-1827 -35 c65 -22 123 -45 129 -51 13 -13 7 -12 -129 32 -87 28 -152 58 -129
59 6 0 65 -18 129 -40z m5760 10 c61 -38 92 -124 110 -305 3 -33 13 -111 21
-174 9 -62 13 -129 9 -147 -14 -80 -105 -137 -219 -138 -80 -1 -122 23 -158
90 -28 52 -28 52 -67 424 -14 133 3 192 68 232 67 42 183 51 236 18z m1795 -3
c-21 -20 -238 -91 -220 -73 5 4 218 84 230 85 2 1 -2 -5 -10 -12z m-470 -12
c0 -3 -31 -20 -69 -39 -76 -39 -233 -82 -326 -90 -59 -5 -59 -4 -15 6 85 19
245 67 320 97 80 31 90 34 90 26z m-4622 -16 c76 -16 95 -42 94 -130 -1 -39
-3 -73 -5 -76 -3 -2 -28 -1 -56 3 l-51 7 2 40 c2 48 -19 67 -73 67 -46 0 -69
-27 -69 -83 0 -53 10 -70 110 -172 48 -49 97 -109 109 -132 49 -98 13 -238
-75 -289 -38 -22 -56 -26 -119 -26 -83 1 -128 17 -165 56 -21 23 -25 39 -28
102 l-4 75 58 -3 59 -3 3 -57 c2 -46 7 -61 25 -73 32 -22 82 -19 113 9 23 19
28 31 28 72 -1 66 -22 103 -119 204 -101 105 -118 135 -118 216 0 81 28 140
85 177 47 30 108 35 196 16z m2708 -15 c37 -18 50 -46 58 -126 6 -55 5 -58
-16 -58 -13 0 -39 -3 -59 -6 l-37 -6 1 42 c2 76 -69 102 -120 44 -21 -23 -23
-35 -23 -131 l0 -106 25 23 c20 19 40 25 88 28 94 6 131 -13 163 -83 23 -49
26 -71 27 -173 2 -136 -6 -158 -74 -193 -60 -30 -175 -37 -235 -14 -38 14 -50
25 -64 59 -20 45 -35 178 -46 402 -9 191 10 249 96 295 54 29 158 30 216 3z
m-2161 -29 c22 -2 68 -4 103 -4 l62 -1 0 -39 c0 -21 -3 -59 -6 -85 -6 -44 -8
-46 -40 -46 -28 0 -34 4 -34 21 0 37 -19 59 -50 59 -17 0 -30 -1 -31 -2 -1 -4
-26 -336 -35 -467 -7 -97 -6 -105 13 -120 16 -13 19 -24 15 -55 l-4 -38 -52 6
c-28 3 -75 6 -103 6 l-53 0 0 40 c0 32 4 40 19 40 10 0 23 6 28 13 6 6 15 104
22 217 6 113 14 242 18 288 l6 82 -31 0 c-35 0 -62 -22 -62 -51 0 -20 -17 -24
-57 -13 -25 7 -29 31 -17 118 l7 47 121 -6 c67 -4 139 -8 161 -10z m1556 -12
c41 -25 78 -105 87 -189 4 -38 7 -152 7 -254 0 -174 -1 -188 -24 -233 -32 -65
-63 -80 -181 -85 -86 -4 -98 -2 -122 17 -30 24 -48 75 -48 139 l0 42 60 0 60
0 -6 -29 c-5 -23 -1 -35 19 -55 55 -55 116 -21 118 67 1 71 -2 161 -6 165 -1
2 -20 -9 -41 -23 -34 -24 -46 -26 -93 -22 -103 11 -144 82 -145 255 0 112 9
146 52 185 52 47 198 58 263 20z m-531 -338 l0 -335 26 -10 c21 -8 25 -15 20
-33 -3 -12 -6 -30 -6 -40 0 -16 -10 -17 -107 -15 l-108 3 -3 43 c-3 35 0 42
15 42 40 0 43 15 43 249 0 125 -4 232 -9 240 -8 13 -24 17 -68 20 -8 1 -13 15
-13 36 0 25 6 37 23 46 12 7 41 29 64 50 35 32 50 39 83 39 l40 0 0 -335z
m3035 226 c-34 -33 -395 -144 -395 -122 0 4 26 14 58 20 74 17 230 67 284 91
47 21 68 26 53 11z m1 -166 c-42 -32 -218 -86 -321 -99 -30 -3 9 11 100 38 83
24 166 51 185 59 45 20 60 20 36 2z m4 -141 c0 -18 -267 -113 -365 -130 -71
-12 -33 4 135 56 91 29 176 58 190 66 27 14 40 17 40 8z m-3753 -226 c33 -30
31 -80 -3 -107 -54 -42 -124 -10 -124 56 0 66 77 98 127 51z m-787 -368 c305
-29 615 -37 1350 -34 651 2 765 5 1002 24 64 6 127 10 140 9 l23 0 -25 -10
c-75 -30 -388 -98 -590 -128 -282 -41 -351 -46 -695 -46 -334 0 -405 4 -670
41 -189 27 -597 118 -645 145 -20 11 -12 11 110 -1z"/>
<path d="M1642 6343 c-11 -16 -24 -44 -30 -63 -5 -19 -13 -44 -17 -55 l-7 -20
14 20 c16 22 70 145 63 145 -2 0 -12 -12 -23 -27z"/>
<path d="M1230 6001 c0 -14 25 -21 160 -46 76 -14 129 -20 134 -14 15 14 0 22
-41 23 -21 0 -40 4 -43 8 -3 4 -49 14 -103 22 -114 19 -107 18 -107 7z"/>
<path d="M6935 5619 c-283 -11 -928 -14 -952 -6 -13 5 -23 4 -23 0 0 -24 131
-34 443 -33 177 0 336 2 352 4 17 2 138 7 270 11 132 4 251 9 265 11 14 1 88
3 164 3 77 1 136 4 132 8 -9 9 -421 10 -651 2z"/>
<path d="M7607 5554 c-1 -1 -114 -5 -252 -9 -137 -4 -257 -8 -265 -10 -31 -6
-673 -19 -892 -18 -125 0 -226 -3 -223 -7 3 -4 87 -11 187 -14 491 -16 601
-16 823 -2 127 8 282 18 345 21 63 3 165 11 225 16 61 6 138 10 173 10 35 0
62 5 62 10 0 8 -173 11 -183 3z"/>
<path d="M8006 5701 c-5 -7 47 -36 127 -70 26 -11 47 -16 47 -12 0 5 -14 14
-31 21 -17 7 -36 18 -42 24 -17 17 -96 46 -101 37z"/>
<path d="M8055 5571 c34 -36 65 -53 65 -35 0 9 -42 43 -75 60 -29 15 -28 14
10 -25z"/>
<path d="M8100 5603 c0 -13 29 -38 35 -31 3 3 -4 13 -15 23 -11 10 -20 13 -20
8z"/>
<path d="M8225 5334 c-22 -13 -40 -28 -39 -34 3 -31 4 -32 19 -20 8 6 22 10
32 7 14 -3 11 -7 -14 -18 -23 -11 -30 -18 -23 -29 5 -8 6 -18 4 -22 -10 -15
51 4 64 20 13 17 17 108 5 115 -5 2 -26 -7 -48 -19z"/>
<path d="M8355 5155 l-30 -15 35 6 c19 3 39 10 45 15 14 14 -16 10 -50 -6z"/>
<path d="M4848 5523 c12 -2 32 -2 45 0 12 2 2 4 -23 4 -25 0 -35 -2 -22 -4z"/>
<path d="M4930 5481 c-51 -27 -71 -60 -77 -128 -8 -87 11 -156 56 -203 36 -37
37 -37 136 -45 55 -4 109 -9 120 -12 11 -2 101 -8 200 -13 473 -24 574 -31
550 -41 -47 -18 -581 4 -734 31 -70 13 -78 13 -65 0 16 -16 242 -39 502 -52
197 -9 253 -9 295 2 54 13 87 34 87 56 0 22 -76 109 -141 161 -122 95 -138
101 -584 208 -119 29 -258 55 -290 55 -11 0 -36 -8 -55 -19z m130 -42 c131
-21 137 -23 150 -79 16 -66 5 -143 -26 -179 -63 -76 -235 -56 -274 31 -9 20
-15 64 -15 110 0 67 3 79 24 102 27 29 45 31 141 15z m175 -39 c-3 -5 -11 -10
-16 -10 -6 0 -7 5 -4 10 3 6 11 10 16 10 6 0 7 -4 4 -10z m104 -16 c10 -9 -35
-3 -49 6 -11 8 -7 9 15 4 17 -4 32 -8 34 -10z m174 -44 c72 -17 138 -37 145
-44 6 -6 13 -37 15 -67 4 -92 -43 -137 -128 -123 -78 13 -108 42 -117 114 -3
22 -12 26 -93 46 -49 12 -79 22 -65 23 14 0 52 -6 85 -14 80 -19 77 -20 73 21
-2 30 -9 40 -36 55 -39 20 -55 35 -29 26 9 -4 77 -20 150 -37z m-131 -13 c46
-25 44 -33 -3 -13 -19 8 -55 17 -82 21 -67 10 -72 28 -5 19 29 -3 70 -16 90
-27z"/>
<path d="M4935 5341 c-3 -5 4 -13 16 -16 28 -9 36 1 10 14 -12 7 -22 7 -26 2z"/>
<path d="M4945 5296 c-15 -11 -14 -13 10 -24 40 -18 111 -26 119 -14 17 27
-98 61 -129 38z"/>
<path d="M4938 5233 c5 -10 8 -23 5 -29 -2 -5 14 -20 36 -32 43 -24 112 -29
158 -11 28 11 27 12 -29 25 -32 7 -80 25 -107 39 -60 30 -75 32 -63 8z"/>
<path d="M5450 5229 c0 -11 78 -34 87 -26 3 4 4 10 0 13 -10 11 -87 22 -87 13z"/>
<path d="M5460 5187 c0 -37 98 -72 147 -53 15 6 11 11 -22 26 -22 11 -50 19
-63 20 -13 0 -32 5 -43 10 -14 8 -19 7 -19 -3z"/>
<path d="M4680 5381 c0 -48 29 -171 47 -202 18 -29 50 -47 93 -50 41 -2 43 0
25 27 -9 14 -14 31 -12 39 3 7 0 18 -6 24 -6 6 -7 11 -3 11 5 0 3 6 -3 13 -6
8 -14 31 -19 52 -6 30 -14 40 -33 46 -31 8 -69 39 -69 56 0 7 -4 13 -10 13 -5
0 -10 -13 -10 -29z"/>
<path d="M7202 5291 c-18 -3 -33 -10 -34 -14 0 -5 14 -30 33 -55 l33 -47 7 55
c4 30 5 58 1 61 -4 3 -22 3 -40 0z"/>
<path d="M7290 5258 c0 -7 -5 -46 -10 -86 -9 -69 -8 -75 15 -112 14 -22 25
-45 26 -52 3 -33 28 113 29 163 0 45 -4 59 -23 77 -26 25 -37 28 -37 10z"/>
<path d="M7114 5248 c-28 -35 -24 -51 32 -150 30 -54 61 -97 67 -95 26 8 15
81 -24 152 -54 99 -63 110 -75 93z"/>
<path d="M7375 5063 c-4 -43 -12 -84 -17 -90 -12 -14 14 -29 31 -19 24 15 25
186 2 186 -5 0 -12 -35 -16 -77z"/>
<path d="M7080 5105 c0 -18 54 -133 75 -161 33 -43 59 -47 44 -6 -25 67 -119
198 -119 167z"/>
<path d="M7258 4973 c-3 -21 -7 -45 -9 -53 -3 -11 5 -16 29 -18 62 -6 66 3 26
55 -20 27 -37 49 -39 51 -2 2 -5 -14 -7 -35z"/>
<path d="M7970 4809 c-47 -4 -179 -13 -295 -19 -115 -6 -227 -13 -247 -15
-112 -11 -453 -20 -741 -20 -299 0 -327 -1 -327 -17 0 -9 8 -24 17 -34 16 -16
52 -17 503 -11 439 6 681 17 1021 47 181 16 198 21 199 63 0 19 3 19 -130 6z"/>
<path d="M8010 4724 c-30 -2 -138 -8 -240 -14 -356 -22 -758 -37 -1059 -39
-308 -2 -350 -7 -319 -37 20 -19 74 -23 348 -25 163 -1 239 -4 210 -10 -25 -4
-159 -8 -298 -8 -236 -1 -253 -2 -250 -18 3 -15 19 -19 113 -24 61 -4 200 -7
309 -8 110 0 197 -3 195 -5 -2 -2 -136 -6 -298 -10 -162 -4 -297 -8 -299 -11
-3 -2 -2 -11 1 -20 6 -13 39 -15 241 -15 129 0 243 -3 253 -7 10 -5 -97 -10
-237 -13 -218 -4 -255 -7 -255 -20 0 -13 50 -15 390 -16 451 0 682 9 1060 42
118 11 185 21 194 30 26 24 -13 27 -186 14 -90 -6 -167 -10 -169 -7 -3 2 41
10 98 17 214 25 263 35 266 53 4 21 10 21 -223 2 -98 -8 -181 -12 -183 -10 -5
5 39 12 158 25 167 18 250 33 262 47 6 7 9 16 6 18 -3 3 -58 1 -124 -5 -129
-10 -371 -21 -339 -15 11 2 106 14 210 26 105 12 205 27 223 35 34 14 44 35
15 32 -10 -1 -43 -3 -73 -4z m-615 -114 c-3 -5 -12 -10 -18 -10 -7 0 -6 4 3
10 19 12 23 12 15 0z m-35 -10 c0 -5 -7 -10 -16 -10 -8 0 -12 5 -9 10 3 6 10
10 16 10 5 0 9 -4 9 -10z"/>
<path d="M1487 4659 c-62 -149 -83 -282 -51 -327 19 -28 63 -29 96 -2 23 18
25 23 17 66 -5 25 -13 97 -18 161 -10 128 -22 155 -44 102z"/>
<path d="M3495 4348 c2 -24 7 -88 10 -143 7 -123 25 -204 65 -292 l31 -68 24
43 c13 24 65 98 115 166 94 128 102 149 80 212 -14 40 -29 48 -171 83 -68 17
-132 34 -141 37 -15 4 -16 -1 -13 -38z m164 -18 c23 -6 41 -13 39 -15 -5 -6
-108 22 -117 31 -3 3 3 4 14 1 11 -3 40 -11 64 -17z m-99 -73 c0 -70 28 -198
60 -271 11 -27 18 -51 15 -54 -9 -9 -52 100 -74 187 -22 88 -29 217 -11 206 6
-3 10 -34 10 -68z"/>
<path d="M3863 4107 c-38 -56 -163 -357 -163 -392 0 -7 30 -27 68 -46 87 -44
150 -45 239 -5 55 25 61 31 52 47 -12 23 -39 127 -68 264 -28 131 -29 133 -52
146 -15 8 -24 7 -35 -2 -12 -10 -13 -9 -8 5 11 28 -10 18 -33 -17z m-24 -96
c-18 -39 -34 -69 -37 -67 -2 3 11 37 28 76 18 38 35 69 37 67 2 -2 -11 -36
-28 -76z m-114 -291 c3 -5 1 -10 -4 -10 -6 0 -11 5 -11 10 0 6 2 10 4 10 3 0
8 -4 11 -10z m88 -16 c54 -23 71 -26 137 -21 60 5 71 3 55 -6 -11 -7 -51 -12
-90 -11 -56 0 -81 6 -122 27 -47 24 -64 37 -48 37 3 0 34 -12 68 -26z"/>
<path d="M3922 4388 c-17 -17 -15 -25 8 -31 17 -4 20 -14 20 -58 0 -29 3 -49
7 -46 10 11 4 81 -10 115 -10 25 -16 29 -25 20z"/>
<path d="M3907 4334 c-15 -15 -3 -104 14 -104 11 0 11 67 0 93 -3 10 -10 15
-14 11z"/>
<path d="M7615 3259 c-93 -4 -206 -9 -250 -13 -44 -3 -134 -8 -200 -11 -124
-6 -175 -9 -410 -24 -77 -6 -196 -13 -265 -16 -69 -3 -152 -8 -185 -10 -59 -4
-204 -10 -455 -20 -295 -11 -419 -16 -480 -20 -36 -2 -150 -7 -255 -11 -104
-3 -193 -8 -197 -10 -8 -5 -70 -11 -200 -19 -59 -4 -98 -11 -98 -18 0 -10 618
-4 790 8 36 2 151 7 255 10 479 14 1022 38 1109 50 21 3 102 10 180 15 125 8
465 33 616 44 30 3 151 10 268 17 151 9 209 16 202 23 -13 13 -184 15 -425 5z"/>
<path d="M7748 3165 c-2 -2 -100 -6 -218 -9 -343 -10 -889 -41 -1045 -61 -53
-6 -449 -23 -710 -30 -115 -3 -221 -8 -235 -10 -14 -2 -65 -7 -115 -10 -96 -6
-146 -13 -155 -22 -6 -7 433 4 880 22 125 5 265 13 735 40 138 8 306 17 375
20 146 6 298 15 355 20 22 2 85 6 140 10 169 9 235 17 235 26 0 7 -234 12
-242 4z"/>
<path d="M7004 2462 c-41 -6 -57 -36 -55 -104 1 -74 38 -397 47 -424 14 -38
47 -64 80 -64 45 0 74 38 74 97 0 79 -51 447 -65 469 -14 22 -44 32 -81 26z"/>
<path d="M6403 2095 c-32 -14 -33 -16 -33 -77 0 -92 17 -181 37 -195 27 -21
72 -15 98 12 21 20 25 33 24 82 -1 95 -14 155 -39 175 -26 21 -44 22 -87 3z"/>
<path d="M5778 2370 c-28 -17 -41 -75 -33 -148 12 -114 39 -143 113 -122 46
12 52 22 52 96 0 74 -18 145 -42 167 -22 19 -63 22 -90 7z"/>
<path d="M4947 9174 c-3 -20 0 -28 14 -31 18 -5 19 -18 19 -208 0 -197 -1
-203 -21 -208 -15 -4 -20 -12 -17 -29 3 -23 5 -23 146 -26 l142 -3 0 61 0 60
-30 0 c-19 0 -30 -5 -30 -14 0 -25 -30 -46 -66 -46 l-34 0 2 208 c3 176 5 207
18 207 9 0 16 11 18 28 l3 27 -79 0 c-78 0 -80 -1 -85 -26z"/>
<path d="M4639 9183 c-51 -4 -57 -6 -61 -28 -4 -17 1 -29 14 -37 19 -13 19
-16 -2 -203 -24 -215 -26 -225 -46 -225 -8 0 -14 -10 -14 -26 l0 -27 71 6 c39
3 73 8 75 9 9 9 -10 48 -23 48 -13 0 -14 9 -9 52 4 29 9 54 10 55 1 2 24 7 50
12 45 8 48 8 58 -18 24 -62 27 -82 12 -88 -7 -3 -14 -17 -14 -30 0 -26 1 -26
61 -19 34 3 70 6 80 6 14 0 19 7 19 30 0 23 -5 30 -19 30 -15 0 -31 36 -87
198 -37 108 -73 212 -78 230 -7 19 -17 31 -26 30 -8 -1 -40 -3 -71 -5z m68
-216 c12 -39 23 -75 23 -79 0 -5 -16 -8 -36 -8 l-36 0 5 58 c4 31 6 70 7 86 0
42 10 26 37 -57z"/>
<path d="M5530 9155 c0 -16 6 -25 15 -25 13 0 15 -34 15 -249 l0 -248 31 -7
c63 -12 64 -12 112 97 24 56 50 120 57 142 16 50 32 70 29 35 -1 -14 -1 -89
-1 -167 2 -156 -3 -145 74 -158 36 -7 37 -6 58 40 12 26 48 119 81 208 68 182
76 200 89 192 12 -8 34 35 23 46 -7 7 -116 39 -134 39 -4 0 -9 -13 -11 -30 -3
-20 0 -30 9 -30 7 0 13 -6 13 -13 0 -13 -96 -297 -103 -303 -4 -4 -4 4 -6 252
l-1 151 -37 11 c-29 9 -40 9 -49 -1 -7 -6 -42 -92 -79 -190 -38 -97 -69 -176
-70 -175 -1 2 0 78 3 170 4 152 6 168 23 173 11 4 19 16 19 29 0 20 -6 24 -52
30 -96 11 -108 9 -108 -19z"/>
<path d="M4233 9109 c-39 -11 -73 -53 -73 -89 0 -46 61 -352 75 -381 36 -68
193 -61 230 12 37 71 -6 164 -53 117 -7 -7 -12 -28 -12 -48 0 -20 -5 -41 -12
-48 -15 -15 -65 -16 -74 0 -4 6 -22 88 -40 181 -36 186 -35 197 20 197 24 0
35 -7 47 -29 14 -23 22 -28 44 -23 25 4 27 8 22 44 -8 59 -30 78 -91 77 -28 0
-65 -5 -83 -10z"/>
<path d="M3970 9041 c-47 -14 -55 -21 -58 -43 -3 -21 2 -27 19 -30 23 -3 27
-14 102 -275 31 -106 32 -112 13 -127 -10 -7 -12 -18 -6 -32 8 -21 8 -21 62
-3 29 10 61 18 70 19 9 0 19 4 22 8 10 16 -7 52 -24 52 -17 0 -21 9 -99 279
-27 90 -29 105 -16 115 19 14 9 56 -14 55 -9 -1 -41 -9 -71 -18z"/>
<path d="M6208 9004 c-29 -15 -57 -62 -76 -124 -6 -19 -25 -82 -42 -139 -36
-116 -39 -160 -16 -196 23 -36 87 -65 142 -65 76 0 102 34 159 215 72 224 65
273 -43 309 -56 20 -89 20 -124 0z m120 -76 c20 -16 14 -53 -25 -172 -54 -166
-68 -194 -98 -202 -28 -7 -65 18 -65 44 0 19 86 285 101 315 7 12 17 25 23 29
12 8 44 1 64 -14z"/>
<path d="M3753 8973 c-49 -17 -59 -48 -19 -63 22 -8 57 -84 91 -200 9 -29 10
-30 -77 75 -36 44 -79 92 -95 107 l-29 28 -54 -21 c-30 -11 -57 -22 -58 -24
-8 -7 10 -45 18 -40 13 8 23 -15 96 -206 53 -140 64 -176 58 -206 -7 -36 -6
-36 22 -29 41 11 124 47 124 55 -1 17 -31 43 -44 38 -11 -4 -26 21 -59 96 -46
105 -61 147 -54 147 2 0 45 -48 97 -107 125 -145 125 -145 169 -137 20 4 38 8
40 10 4 4 -32 113 -97 288 -41 111 -52 150 -42 156 7 4 9 16 5 29 -8 25 -31
26 -92 4z"/>
<path d="M6531 8898 c-6 -16 -4 -26 6 -33 22 -16 -140 -373 -171 -377 -14 -2
-22 -11 -24 -28 -2 -22 5 -28 63 -52 l65 -27 11 21 c9 17 8 24 -3 32 -13 10
-10 21 19 84 l35 73 31 -19 c27 -15 32 -24 31 -53 -1 -19 -13 -61 -27 -93 -14
-33 -23 -65 -20 -73 3 -8 23 -23 45 -34 38 -20 40 -20 54 -2 17 23 17 30 -1
37 -12 4 -11 15 10 71 27 71 31 106 15 136 -9 16 -7 19 13 19 30 0 50 22 77
85 47 108 27 143 -118 211 -51 24 -95 44 -98 44 -3 0 -8 -10 -13 -22z m140
-109 c16 -11 29 -27 29 -35 0 -31 -43 -114 -62 -120 -20 -6 -81 14 -75 25 6
11 37 80 51 116 8 19 18 35 21 35 4 0 20 -9 36 -21z"/>
<path d="M3238 8739 c-32 -16 -58 -33 -58 -38 0 -23 14 -41 31 -41 20 0 18 6
88 -250 27 -99 36 -149 29 -157 -10 -13 -2 -53 11 -53 19 0 121 63 121 75 0
17 -27 38 -39 30 -12 -7 -44 63 -37 82 3 6 23 22 46 33 l41 21 19 -23 c28 -33
35 -59 19 -69 -12 -7 -11 -11 4 -26 16 -16 20 -16 82 15 36 17 65 36 65 41 0
24 -14 41 -34 41 -15 0 -35 15 -56 43 -65 81 -262 307 -269 307 -3 -1 -32 -14
-63 -31z m182 -245 c0 -5 -61 -36 -65 -32 -2 2 -12 35 -24 73 -12 39 -24 79
-28 90 -3 11 22 -13 56 -53 33 -41 61 -76 61 -78z"/>
<path d="M6911 8718 c-5 -13 -4 -29 1 -38 7 -11 -13 -55 -78 -170 -111 -198
-105 -189 -122 -182 -14 5 -42 -22 -42 -39 0 -5 28 -24 62 -44 47 -28 63 -33
70 -23 4 7 6 22 4 32 -3 12 12 51 37 94 47 83 53 79 42 -36 -6 -61 -10 -75
-26 -79 -16 -5 -37 -40 -27 -47 1 -2 29 -20 62 -41 56 -37 59 -38 72 -20 17
23 18 45 3 45 -8 0 -9 17 -4 58 4 31 10 93 14 137 l6 80 70 37 c51 28 79 37
102 34 25 -4 35 0 47 19 16 24 15 25 -45 65 -50 34 -63 39 -75 29 -9 -7 -13
-22 -10 -33 4 -17 -9 -29 -74 -67 l-79 -46 16 31 c34 65 66 107 80 102 17 -7
41 41 27 53 -5 4 -35 22 -67 40 l-57 31 -9 -22z"/>
<path d="M2966 8565 c-67 -47 -68 -48 -56 -79 8 -22 13 -26 24 -17 10 8 23 -4
59 -57 26 -37 47 -70 47 -73 0 -4 -18 -18 -39 -32 l-40 -26 -45 72 c-27 43
-42 75 -36 81 11 11 -5 46 -21 46 -17 0 -118 -74 -119 -86 0 -17 26 -35 42
-29 10 4 41 -35 105 -132 125 -193 124 -190 118 -215 -3 -13 -1 -29 4 -37 7
-11 18 -7 57 19 84 57 87 60 67 82 -9 10 -23 16 -32 13 -11 -3 -28 14 -56 57
-22 34 -41 65 -43 69 -4 8 76 65 82 58 2 -2 20 -30 40 -61 26 -41 35 -65 31
-81 -4 -15 -1 -28 8 -36 12 -9 27 -4 80 30 65 41 65 42 50 66 -13 19 -18 21
-30 11 -10 -8 -17 -8 -21 -1 -4 6 -54 81 -111 167 -75 113 -101 160 -93 168
10 10 -3 59 -17 57 -3 0 -28 -15 -55 -34z"/>
<path d="M4835 8469 c-693 -54 -1371 -355 -1854 -824 -109 -106 -245 -255
-238 -261 2 -2 44 1 93 8 l89 11 115 111 c288 279 593 476 955 619 648 255
1391 272 2060 46 163 -55 328 -124 415 -172 177 -98 327 -199 497 -334 493
-392 859 -993 998 -1640 10 -46 23 -87 29 -92 6 -5 37 -21 70 -35 l58 -26 -7
48 c-14 102 -57 291 -91 404 -201 675 -618 1229 -1232 1642 -369 248 -831 415
-1327 481 -136 18 -481 26 -630 14z"/>
<path d="M7274 8470 c-30 -12 -62 -59 -73 -109 -10 -48 -7 -78 14 -134 43
-108 -24 -229 -91 -166 -28 27 -30 39 -8 81 16 31 16 33 -6 50 -27 22 -34 18
-70 -39 -33 -51 -30 -74 14 -122 38 -41 82 -61 137 -61 33 0 47 6 71 32 59 64
73 126 47 223 -21 83 -23 115 -7 150 13 30 37 32 69 6 21 -17 22 -22 12 -54
-9 -30 -8 -38 6 -51 10 -9 23 -16 29 -16 12 0 62 79 62 98 0 18 -69 91 -101
108 -31 16 -73 17 -105 4z"/>
<path d="M2603 8291 c-67 -43 -93 -81 -93 -133 0 -27 18 -54 91 -143 123 -148
149 -175 186 -191 38 -17 82 -2 138 47 31 27 35 37 35 78 0 36 -6 54 -28 80
l-27 33 -25 -20 -24 -20 18 -41 c18 -40 18 -42 1 -61 -37 -41 -58 -28 -174
113 -62 74 -111 141 -111 153 0 24 29 54 52 54 8 0 23 -9 33 -20 23 -25 37
-25 60 0 17 19 16 21 -26 65 l-44 46 -62 -40z"/>
<path d="M7552 8269 c-9 -14 -10 -24 -3 -33 8 -9 4 -19 -15 -37 -20 -17 -202
-221 -240 -268 -2 -2 -10 2 -19 9 -12 10 -17 8 -27 -15 -11 -24 -10 -29 9 -43
11 -10 39 -32 61 -50 40 -32 41 -33 52 -12 8 16 8 25 0 35 -9 10 2 27 47 74
l58 61 36 -33 35 -34 -55 -59 c-35 -37 -62 -58 -73 -56 -9 2 -21 -5 -27 -16
-8 -16 -2 -27 40 -68 l49 -48 22 21 c16 17 19 25 10 36 -9 10 -2 23 34 58 25
24 84 88 132 142 48 53 94 97 103 97 9 0 22 7 29 16 11 13 5 23 -40 69 l-53
54 -18 -22 c-12 -15 -14 -26 -7 -34 7 -9 -6 -31 -48 -78 l-57 -66 -34 33 c-18
17 -33 36 -33 40 0 15 94 110 118 119 42 16 39 39 -11 85 -25 24 -50 44 -54
44 -5 0 -14 -9 -21 -21z"/>
<path d="M2302 8007 l-93 -93 21 -19 c18 -16 23 -17 30 -5 8 12 40 -17 149
-130 121 -126 140 -148 135 -171 -3 -15 1 -30 9 -38 12 -9 33 8 111 89 65 68
94 105 89 114 -5 7 -21 28 -36 46 -28 33 -28 33 -48 13 -18 -17 -18 -23 -8
-47 12 -25 10 -30 -17 -57 l-30 -29 -59 60 -59 60 39 40 c38 39 38 40 20 60
-25 27 -33 26 -75 -15 l-36 -35 -52 53 -52 53 29 29 c24 22 33 26 44 17 11 -9
19 -8 35 6 l21 19 -30 36 c-17 20 -34 37 -37 37 -4 0 -49 -42 -100 -93z"/>
<path d="M7847 7939 c-32 -9 -167 -121 -244 -202 -64 -67 -74 -106 -44 -165
40 -79 133 -123 186 -88 31 20 115 95 207 183 96 92 103 149 29 221 -45 44
-93 62 -134 51z m71 -95 c43 -30 29 -55 -98 -173 -66 -61 -128 -111 -139 -111
-31 0 -65 33 -57 57 8 24 241 243 259 243 7 0 23 -7 35 -16z"/>
<path d="M2119 7783 c-68 -76 -66 -70 -33 -106 36 -38 144 -181 144 -189 0 -4
-58 17 -129 46 l-129 53 -41 -55 c-33 -46 -38 -57 -28 -73 7 -12 18 -17 30
-13 19 6 28 0 231 -170 l119 -99 38 44 c45 51 46 55 19 69 -14 8 -26 8 -41 0
-12 -7 -25 -8 -32 -2 -30 23 -183 145 -192 154 -5 5 17 -3 50 -17 97 -43 178
-72 223 -80 67 -11 64 11 -20 117 -93 118 -126 164 -107 153 7 -5 58 -45 111
-89 73 -59 95 -83 87 -92 -7 -9 -5 -15 9 -23 16 -8 24 -4 48 22 64 70 66 74
54 97 -11 20 -13 20 -29 6 -16 -15 -22 -12 -77 30 -32 26 -103 78 -157 116
-82 58 -97 73 -91 90 4 13 1 24 -7 29 -20 13 -23 12 -50 -18z"/>
<path d="M8086 7691 c-12 -13 -14 -21 -6 -26 17 -10 6 -20 -166 -151 -147
-111 -157 -117 -170 -99 -13 18 -14 18 -33 1 -20 -18 -20 -19 19 -77 47 -69
53 -73 80 -59 16 9 19 15 10 25 -11 13 11 34 96 93 l32 22 26 -40 c37 -57 88
-71 149 -41 54 26 137 112 137 141 0 12 -5 31 -11 42 -22 40 -130 188 -138
188 -4 0 -16 -9 -25 -19z m75 -158 l23 -36 -47 -42 c-60 -55 -82 -61 -114 -29
-13 13 -23 29 -21 34 2 6 125 106 135 109 1 1 12 -16 24 -36z"/>
<path d="M1084 4291 c8 -13 112 -22 138 -12 26 11 22 12 -75 17 -37 2 -65 -1
-63 -5z"/>
</g>
</svg>
