<svg width="175" height="65" viewBox="0 0 175 65" fill="none" xmlns="http://www.w3.org/2000/svg">
<path d="M152.941 14.9728L150.084 18.0041C134.954 6.10038 128.164 3.14748 126.66 3.15899C100.16 -0.880329 80.5431 3.51203 74.0469 6.21311L46.3685 24.9845L43.3608 25.0075L28.343 27.7739C20.5232 27.8338 15.5832 30.8175 14.0906 32.3019C8.69314 34.4643 6.36378 37.9584 5.87378 39.4351C4.08004 40.8629 3.64511 42.9873 3.65188 43.871C2.44884 43.8802 2.16611 46.2392 2.17513 47.4175C0.375975 48.1383 1.94028 49.4815 2.94733 50.0629L2.99468 56.2491L2.24954 57.1386L2.26984 59.7898C1.66833 59.7944 1.52245 60.3847 1.5247 60.6793C6.0632 64.1797 12.0649 62.3662 15.8312 63.2211C18.8442 63.9051 19.0872 62.9016 18.8321 62.3144L18.7847 56.1282C19.4938 50.5255 23.4671 39.1237 33.6876 38.3384C43.9081 37.5531 48.0617 49.7176 48.861 55.898L48.8948 60.3167C48.9002 61.0236 49.9041 61.1927 50.4054 61.1889L121.085 60.6478C124.699 61.3272 125.092 60.3226 124.837 59.7353L124.797 54.4329C124.79 53.5492 126.186 39.3979 138.209 38.4221C147.828 37.6414 152.319 48.0357 153.362 53.3305L153.403 58.6329C153.408 59.3399 153.906 58.9236 154.155 58.6271L169.173 55.8608C171.576 55.4182 173.145 50.9401 173.63 48.7564C174.375 47.8669 173.562 39.919 173.556 39.0353C173.55 38.3283 172.04 37.5739 171.286 37.2851C171.273 35.5176 171.225 29.3315 170.453 26.686C169.836 24.5697 169.672 22.8623 169.668 22.2731L168.916 22.2789M152.941 14.9728L156.797 10.8824M152.941 14.9728C152.07 16.3339 151.377 17.7764 151.177 18.8795C152.681 18.8679 157.468 19.8918 156.872 20.6034C156.275 21.315 164.653 22.0169 168.916 22.2789M152.941 14.9728C154.167 13.0578 155.745 11.3037 156.797 10.8824M156.797 10.8824C156.542 10.2951 157.836 9.10684 165.055 9.05159L172.574 8.99403C173.326 8.98827 174.092 10.9267 171.144 18.7266C171.395 18.7247 171.3 19.4325 168.916 22.2789" stroke="#827516" stroke-width="1.18993"/>
</svg>
