<svg width="183" height="181" viewBox="0 0 183 181" fill="none" xmlns="http://www.w3.org/2000/svg">
<path d="M143.194 1.84473C138.997 5.73351 134.342 10.8057 131.004 16.4873C126.704 23.8048 124.432 32.4275 128.602 40.8145C129.479 42.8468 131.259 45.8788 133.832 48.5928C136.339 51.2367 139.709 53.6927 143.845 54.498L144.247 54.5713C148.873 55.3422 153.302 56.648 159.109 55.3574C164.57 54.1439 171.152 50.6924 180.669 42.876C182.279 49.9177 179.255 64.6257 151.992 77.1611C149.176 77.9136 144.427 78.6698 139.312 78.4785C134.106 78.2838 128.708 77.1158 124.57 74.1602L123.367 73.3008L122.411 74.4297L104.769 95.2803C104.337 95.738 103.858 96.4803 103.707 97.4072C103.532 98.4854 103.827 99.6752 104.839 100.688L105.006 100.854L105.213 100.966C112.008 104.625 130.604 117.146 149.762 137.581C159.097 147.538 160.308 156.07 158.423 162.612C156.5 169.287 151.242 174.289 146.928 176.833C142.523 179.272 130.366 182.265 118.135 173.703C111.957 169.379 104.867 160.884 98.4521 151.851C92.071 142.864 86.4842 133.525 83.2988 127.686H83.2979C83.114 127.327 82.8602 126.928 82.5361 126.567C82.2089 126.204 81.7183 125.776 81.0615 125.562C80.3284 125.324 79.5164 125.397 78.7822 125.866C78.1199 126.289 77.6284 126.964 77.2422 127.736C77.2526 127.715 77.2353 127.751 77.1543 127.869C77.0813 127.975 76.9793 128.115 76.8447 128.291C76.5757 128.643 76.2041 129.103 75.7354 129.667C74.7993 130.792 73.508 132.289 71.9385 134.072C68.8014 137.636 64.5836 142.315 59.9492 147.404C50.7598 157.495 39.9502 169.179 32.7266 176.938C26.0563 180.526 16.6444 180.055 10.0986 175.58C6.82968 173.345 4.29992 170.13 3.16016 165.933C2.03684 161.796 2.22945 156.572 4.59375 150.215L20.3555 134.453L63.6621 97.5625L63.9111 97.3506L64.0576 97.0586C64.3916 96.3906 64.7837 95.3198 64.9014 94.1768C65.0155 93.0678 64.9003 91.5312 63.7568 90.3877C62.487 89.1177 38.6405 64.2028 26.8516 51.8779L26.6318 51.6484L26.3428 51.5205L12.4395 45.3408L2.03809 23.0498L9.64941 17.9756L30.7686 31.5518L35.4072 45.4668L35.5273 45.8262L35.7949 46.0947L72.7256 83.0254L72.9102 83.209L73.1426 83.3262C73.8105 83.6601 74.8815 84.0512 76.0244 84.1689C77.1333 84.2831 78.67 84.1686 79.8135 83.0254C81.0478 81.791 98.4245 66.5444 107.032 59.0127L107.843 58.3027L107.493 57.2832C104.354 48.1275 102.688 34.4411 107.61 22.9932C110.055 17.3073 114.133 12.1483 120.528 8.31738C126.096 4.98203 133.485 2.61622 143.194 1.84473ZM104.369 118.82C103.309 118.82 101.755 119.125 100.42 120.086C99.0029 121.106 97.9463 122.793 97.9463 125.243V125.908L98.417 126.378L135.347 163.309L135.817 163.779H136.482C137.542 163.779 139.097 163.474 140.432 162.513C141.848 161.492 142.905 159.806 142.905 157.356V156.691L105.034 118.82H104.369ZM139.651 157.979C139.515 158.983 139.05 159.55 138.555 159.907C138.098 160.236 137.557 160.42 137.086 160.506L101.199 124.619C101.336 123.616 101.801 123.049 102.297 122.692C102.753 122.364 103.293 122.178 103.764 122.092L139.651 157.979ZM32.1133 157.356C32.1132 161.79 28.5189 165.385 24.085 165.385C19.6511 165.385 16.0567 161.79 16.0566 157.356C16.0566 152.923 19.6511 149.328 24.085 149.328C28.5189 149.328 32.1133 152.922 32.1133 157.356ZM35.3252 157.356C35.3252 151.149 30.2925 146.116 24.085 146.116C17.8775 146.116 12.8457 151.149 12.8457 157.356C12.8458 163.564 17.8776 168.596 24.085 168.596C30.2924 168.596 35.3251 163.564 35.3252 157.356Z" stroke="#827516" stroke-width="3.21135"/>
</svg>
