<svg width="143" height="139" viewBox="0 0 143 139" fill="none" xmlns="http://www.w3.org/2000/svg">
<path d="M1.86378 115.911C3.59243 107.378 15.2525 107.289 20.8665 108.311L27.5446 101.869L24.1567 98.7004L36.408 87.9562L30.7614 82.6744C28.9349 78.4283 32.2264 78.7582 34.1004 79.4538L39.747 84.7357L45.312 79.368L58.9127 98.4343L56.6867 100.581L62.3333 105.863C63.2629 110.116 59.7472 109.788 57.8731 109.092L52.2265 103.81L41.0964 114.546L37.7085 111.377L31.0304 117.818C31.986 125.479 30.7463 129.535 30.007 130.606C16.6444 142.637 5.74231 134.342 1.96161 128.691L1.86378 115.911Z" stroke="#827516" stroke-width="2.65052"/>
<path d="M62.2762 98.4086L43.0126 71.9305C42.9735 66.8187 46.7173 67.642 48.594 68.6926L68.9869 96.227C69.0326 102.191 64.5322 100.166 62.2762 98.4086Z" stroke="#827516" stroke-width="2.65052"/>
<path d="M66.6875 88.7895L53.095 70.7882L56.434 67.5675L70.0266 85.5689L66.6875 88.7895Z" stroke="#827516" stroke-width="2.65052"/>
<path d="M74.5357 88.7294L54.1428 61.1949C54.1036 56.0831 57.8474 56.9065 59.7242 57.9572L80.1171 85.4916C81.0531 90.5966 76.7862 89.7772 74.5357 88.7294Z" stroke="#827516" stroke-width="2.65052"/>
<path d="M78.9388 78.0454L64.2251 60.0527L67.5723 57.8971L81.1649 75.8984L78.9388 78.0454Z" stroke="#827516" stroke-width="2.65052"/>
<path d="M86.7952 79.0505L64.1517 50.4681C64.0996 43.6524 69.3458 45.4582 71.9754 47.2131C77.2618 54.2728 88.5156 69.452 91.239 73.6912C93.9624 77.9305 89.4112 79.0304 86.7952 79.0505Z" stroke="#827516" stroke-width="2.65052"/>
<path d="M90.0771 68.3751L76.4764 49.3089L74.2178 47.196L78.6861 45.0317L93.4162 65.1544L90.0771 68.3751Z" stroke="#827516" stroke-width="2.65052"/>
<path d="M96.7959 67.2586L76.403 39.7241C76.3443 32.0564 80.8524 35.0749 83.1137 37.5426C89.1503 44.9516 101.454 60.6198 102.377 64.0208C103.3 67.4218 99.041 67.5964 96.7959 67.2586Z" stroke="#827516" stroke-width="2.65052"/>
<path d="M86.4935 39.6468L88.7195 37.4997C87.9667 36.7955 85.7817 34.5403 83.0648 31.153C80.3479 27.7657 84.1588 27.5945 86.4039 27.9323L92.0586 34.2792L96.5025 28.9201L86.3386 19.4126L96.3557 9.75084C103.479 2.88018 111.272 5.37652 114.278 7.48355C118.704 -0.218488 129.56 2.04146 134.435 4.13418C145.269 13.4234 140.569 24.3226 136.864 28.6111C144.105 37.0758 131.042 49.2461 123.606 54.2731L114.563 44.7571L108.99 49.06L114.645 55.4067C116.471 59.6529 112.427 58.6188 110.177 57.571L105.659 53.3455L101.207 57.6396L86.4935 39.6468Z" stroke="#827516" stroke-width="2.65052"/>
</svg>
