<svg width="158" height="205" viewBox="0 0 158 205" fill="none" xmlns="http://www.w3.org/2000/svg">
<path d="M53.6549 25.5638C52.2494 24.8915 50.2724 22.7211 53.6078 19.4171C56.9432 16.1131 62.636 9.78583 65.0655 7.0352M53.6549 25.5638C68.1442 52.5 88.5534 57.0566 96.9469 55.9678M53.6549 25.5638C47.4166 33.8076 30.1595 56.8888 11.0372 83.2628C-12.8657 116.23 11.8449 188.781 63.3971 200.681C104.639 210.201 131.564 187.865 139.871 175.507C144.906 174.649 146.122 168.971 146.101 166.239C153.606 158.805 153.899 133.053 153.108 121.107L146.085 91.7912M65.0655 7.0352C65.645 5.71596 66.6703 4.36168 68.1879 3.33741M65.0655 7.0352C66.1444 10.7835 69.992 19.4965 76.7507 24.3625M68.1879 3.33741C72.9771 0.10497 82.6698 0.159161 98.7335 14.9736C111.509 26.7553 114.411 33.1073 113.473 36.3755M68.1879 3.33741C72.5354 22.4945 96.7896 35.42 108.373 39.4881C110.591 39.3359 112.858 38.5189 113.473 36.3755M113.473 36.3755C113.529 38.0826 113.22 41.5 111.539 41.5129L96.9469 55.9678M96.9469 55.9678L95.9124 58.0248M95.9124 58.0248L141.25 81.2415C143.005 81.9111 146.526 84.4796 146.563 89.3969C146.585 92.2317 146.354 92.4808 146.085 91.7912M95.9124 58.0248C120.051 55.791 165.492 65.0735 154.15 120.074M146.085 91.7912C145.887 91.2847 145.668 90.2716 145.513 89.405L146.085 91.7912ZM101.68 147.113C102.045 159.779 96.9324 174.336 76.8925 180.087C47.5506 188.508 30.8941 161.998 26.2336 147.691C19.2616 114.96 44.1123 105.207 57.4092 104.423C67.9838 104.342 76.7176 108.282 83.4615 113.444M101.68 147.113C89.9619 170.152 67.545 162.401 57.8013 155.645C34.8793 124.676 55.706 110.583 68.9845 107.407L77.5381 127.222M101.68 147.113C101.551 142.627 100.735 138.378 99.6511 134.842M62.707 110.529C60.2723 112.597 55.4186 118.781 55.4813 126.977M55.4813 126.977C55.5441 135.172 56.9757 139.259 57.6837 140.278C57.8813 140.516 58.0959 140.771 58.325 141.04M55.4813 126.977L71.2574 129.929M80.9049 155.468C69.3307 152.634 72.4801 152.459 69.3218 151.459C68.8562 151.312 68.2631 150.954 67.5875 150.448M80.9049 155.468L93.4835 152.299M80.9049 155.468L79.7371 140.11M93.4835 152.299L95.5994 154.331L99.7373 146.104L99.6942 140.473M93.4835 152.299L83.9221 138.029M99.6511 134.842L99.6942 140.473M99.6511 134.842C99.4911 134.32 99.3254 133.813 99.1551 133.324M59.5958 115.675L73.3342 126.84M73.3342 126.84L71.2574 129.929M73.3342 126.84C74.4467 126.712 75.9803 126.77 77.5381 127.222M71.2574 129.929C70.9178 131.298 70.2417 134.445 70.2543 136.084M70.2543 136.084L58.325 141.04M70.2543 136.084L75.5365 140.142M58.325 141.04L57.6915 141.303M58.325 141.04C60.7675 143.91 64.8529 148.398 67.5875 150.448M75.5365 140.142L67.5875 150.448M75.5365 140.142L79.7371 140.11M79.7371 140.11L83.9221 138.029M83.9221 138.029L83.8986 134.962M83.8986 134.962L99.6942 140.473M83.8986 134.962C83.833 134.423 83.7371 133.917 83.6146 133.443M77.5381 127.222C78.248 127.429 78.9629 127.717 79.6453 128.107M79.6453 128.107L83.4615 113.444M79.6453 128.107C80.4161 128.548 81.1453 129.119 81.7788 129.849M83.4615 113.444C91.184 119.354 96.2973 126.865 98.5774 131.769C98.7742 132.265 98.9674 132.784 99.1551 133.324M81.7788 129.849L90.0898 120.565M81.7788 129.849C82.5809 130.773 83.2295 131.951 83.6146 133.443M83.6027 131.884L88.9717 129.489M88.9717 129.489L94.3408 127.094M88.9717 129.489L96.4591 129.431M83.6146 133.443L99.1551 133.324M101.861 170.676C110.617 164.12 123.658 142.847 105.764 110.2C96.2444 101.393 71.3497 87.104 47.9263 100.397M67.0386 78.7361C83.4045 70.4147 143.436 92.4944 129.15 146.903C127.219 94.0672 93.9105 79.7244 72.9655 78.6734M67.0386 78.7361C68.1528 75.4491 80.4615 64.9731 86.4766 60.146L90.7165 65.2361C86.5168 65.3932 78.5225 72.8946 75.0503 76.6257M67.0386 78.7361C68.8578 78.5967 70.8485 78.5672 72.9655 78.6734M67.0386 78.7361L65.638 81.8203M77.9976 187.251C121.728 192.653 128.173 156.473 125.929 137.707C126.712 148.5 121.775 171.238 95.7641 175.845C100.33 174.003 104.042 171.492 107.044 168.587M107.044 168.587C117.808 158.168 119.436 142.67 118.554 134.697C117.433 125.483 110.554 104.835 92.002 95.9617C80.572 90.4945 68.5988 90.4501 59.2961 92.114M107.044 168.587C121.217 162.741 124.124 143.531 123.805 134.657M149.406 146.258C149.832 131.435 141.942 108.762 137.175 97.6649L143.507 101.714M149.406 146.258C149.322 149.166 148.918 151.772 148.108 153.929C148.568 151.869 149.03 149.254 149.406 146.258ZM149.406 146.258C150.964 133.835 151.054 114.864 143.507 101.714M143.507 101.714C143.118 96.5949 141.286 85.954 137.073 84.347M143.507 101.714C140.943 96.022 129.016 83.7362 123.374 78.3048L98.0677 65.1798C87.983 64.8567 87.4373 60.3134 88.4251 58.0821M79.0706 53.0311C80.4812 54.3863 82.6772 57.7163 80.1756 60.1942C78.2892 62.0628 70.3253 68.8248 64.3114 75.0207M50.1375 90.4486L57.2602 84.958C57.2446 82.9257 60.3563 79.0956 64.3114 75.0207M50.1375 90.4486L47.8636 92.2015C48.5006 91.6315 49.2823 91.0147 50.1375 90.4486ZM50.1375 90.4486C53.5145 88.213 58.0352 86.7676 59.2961 92.114M45.7946 96.3154C48.74 94.8507 53.4997 93.1507 59.2961 92.114M68.8512 89.9918C66.7431 88.9834 65.881 86.1214 79.298 82.7402L68.7963 82.8206M68.7963 82.8206L72.9655 78.6734M68.7963 82.8206L65.638 81.8203M65.638 81.8203L64.3114 75.0207M95.583 14.9977C86.7768 7.89351 70.2426 -2.63488 74.5562 12.0851C79.1592 18.88 91.7304 33.0586 105.191 35.4144C107.994 35.7344 112.536 34.5386 108.279 27.1946C104.917 23.8053 97.6706 16.621 95.583 14.9977ZM57.3778 100.325C42.3255 100.44 13.9731 110.083 20.9828 147.731C25.6616 164.429 44.6603 195.087 83.2249 184.137C97.8723 176.853 120.165 153.119 92.1588 116.451C87.5663 111.022 74.1805 100.196 57.3778 100.325Z" stroke="#827516" stroke-width="3.13028"/>
</svg>
